<?xml version="1.0" encoding="UTF-8" standalone="no"?>
<!-- Created with Inkscape (http://www.inkscape.org/) -->

<svg
   xmlns:dc="http://purl.org/dc/elements/1.1/"
   xmlns:cc="http://creativecommons.org/ns#"
   xmlns:rdf="http://www.w3.org/1999/02/22-rdf-syntax-ns#"
   xmlns:svg="http://www.w3.org/2000/svg"
   xmlns="http://www.w3.org/2000/svg"
   xmlns:sodipodi="http://sodipodi.sourceforge.net/DTD/sodipodi-0.dtd"
   xmlns:inkscape="http://www.inkscape.org/namespaces/inkscape"
   width="269.29132"
   height="269.29132"
   id="svg2"
   version="1.1"
   inkscape:version="0.48.5 r10040"
   sodipodi:docname="ganesh sir2.gcode">
  <defs
     id="defs4" />
  <sodipodi:namedview
     id="base"
     pagecolor="#ffffff"
     bordercolor="#666666"
     borderopacity="1.0"
     inkscape:pageopacity="0.0"
     inkscape:pageshadow="2"
     inkscape:zoom="2.0721054"
     inkscape:cx="134.64566"
     inkscape:cy="134.64566"
     inkscape:document-units="mm"
     inkscape:current-layer="layer1"
     showgrid="false"
     units="mm"
     inkscape:window-width="1366"
     inkscape:window-height="745"
     inkscape:window-x="-8"
     inkscape:window-y="-8"
     inkscape:window-maximized="1" />
  <metadata
     id="metadata7">
    <rdf:RDF>
      <cc:Work
         rdf:about="">
        <dc:format>image/svg+xml</dc:format>
        <dc:type
           rdf:resource="http://purl.org/dc/dcmitype/StillImage" />
        <dc:title></dc:title>
      </cc:Work>
    </rdf:RDF>
  </metadata>
  <g
     inkscape:label="Layer 1"
     inkscape:groupmode="layer"
     id="layer1"
     transform="translate(0,-783.07029)">
    <g
       transform="matrix(0.55374918,0,0,1.690562,16.689556,13.030225)"
       style="font-size:45.790905px;font-style:normal;font-variant:normal;font-weight:normal;font-stretch:normal;line-height:125%;letter-spacing:0px;word-spacing:0px;fill:#000000;fill-opacity:1;stroke:none;font-family:Copperplate Gothic Bold;-inkscape-font-specification:Copperplate Gothic Bold"
       id="text3002">
      <path
         d="m 278.07146,488.64217 -7.53493,0 c -0.46211,10e-6 -0.80867,0.10435 -1.03969,0.31302 -0.23106,0.2087 -0.42111,0.58134 -0.57015,1.11795 l -0.71548,0 0,-7.11011 0.71548,0 c 0.14904,0.55153 0.33909,0.9279 0.57015,1.12912 0.23102,0.20124 0.57758,0.30186 1.03969,0.30184 l 14.48853,0 0,0.71548 c -0.53665,0.14908 -0.91302,0.34285 -1.12912,0.58133 -0.21617,0.23851 -0.32424,0.5888 -0.32421,1.05087 l 0,6.26047 c -3e-5,0.46209 0.10431,0.81238 0.31303,1.05087 0.20864,0.2385 0.58874,0.43228 1.1403,0.58133 l 0,0.55897 c -5.79843,3.30911 -11.41794,4.96366 -16.85857,4.96366 -4.93386,0 -8.95845,-1.17011 -12.07377,-3.51033 -3.92026,-2.95137 -5.88038,-7.05048 -5.88038,-12.29737 0,-4.88911 1.74399,-8.77954 5.23197,-11.67131 3.3091,-2.74266 7.70633,-4.114 13.19172,-4.11403 1.74396,3e-5 3.38734,0.16027 4.93012,0.48072 1.54273,0.3205 3.2979,0.86084 5.26551,1.62101 1.01357,0.40249 1.7365,0.60372 2.16881,0.60369 0.31299,3e-5 0.67818,-0.17139 1.09558,-0.51425 l 0.62605,0.33538 -3.57742,7.31134 -0.6484,-0.33538 c -0.0149,-0.49187 -0.082,-0.84589 -0.20123,-1.06205 -0.11928,-0.21611 -0.38759,-0.48069 -0.80492,-0.79373 -0.90929,-0.68565 -2.24337,-1.27071 -4.00223,-1.75517 -1.75892,-0.48442 -3.42093,-0.72664 -4.98603,-0.72667 -3.18987,3e-5 -5.83567,0.89438 -7.93738,2.68307 -2.37005,2.02722 -3.55507,4.70282 -3.55506,8.02682 -1e-5,3.21968 1.1552,5.82076 3.46562,7.80323 2.11662,1.81853 4.90402,2.72779 8.36221,2.72778 1.68434,1e-5 3.34635,-0.19377 4.98602,-0.58133 1.63962,-0.38754 3.05568,-0.9167 4.24818,-1.58747 z"
         id="path3007"
         inkscape:connector-curvature="0" />
      <path
         d="m 308.61363,493.35989 -11.5148,0 -1.29681,2.72777 c -0.31303,0.65587 -0.46955,1.17012 -0.46954,1.54276 -10e-6,0.71549 0.47698,1.17012 1.43097,1.36389 l 0,0.62605 -9.21184,0 0,-0.62605 c 0.56642,-0.0894 0.98751,-0.26085 1.26327,-0.51425 0.27576,-0.2534 0.59996,-0.75275 0.97261,-1.49804 l 9.14477,-18.51312 c 0.34282,-0.70056 0.51424,-1.3117 0.51425,-1.83343 -10e-6,-0.61111 -0.41738,-1.0881 -1.2521,-1.43096 l 0,-0.62605 9.7261,0 0,0.62605 c -0.81984,0.32795 -1.22976,0.83475 -1.22974,1.5204 -2e-5,0.49192 0.18631,1.0956 0.55897,1.81106 l 9.48015,17.95415 c 0.52168,0.98379 0.93159,1.62102 1.22974,1.91168 0.29809,0.29067 0.75272,0.49563 1.36389,0.61487 l 0,0.60369 -10.21799,0 0,-0.60369 c 0.96886,-0.16396 1.4533,-0.61859 1.45332,-1.36389 -2e-5,-0.46208 -0.18634,-1.03595 -0.55897,-1.72163 z m -1.81106,-3.51034 -4.09167,-8.02683 -3.89044,8.02683 z"
         id="path3009"
         inkscape:connector-curvature="0" />
      <path
         d="m 328.26705,483.11954 0,14.22022 c -10e-6,0.46208 0.10806,0.81983 0.3242,1.07322 0.21613,0.25341 0.58505,0.45463 1.10677,0.60369 l 0,0.60369 -8.31749,0 0,-0.62605 c 0.5217,-0.13415 0.89062,-0.32792 1.10676,-0.58133 0.21613,-0.25339 0.3242,-0.61114 0.3242,-1.07322 l 0,-20.4807 c 0,-0.46206 -0.10434,-0.81235 -0.31302,-1.05086 -0.20869,-0.23847 -0.58133,-0.4397 -1.11794,-0.60369 l 0,-0.62605 9.6143,0 0,0.62605 c -0.65587,0.16399 -0.9838,0.45465 -0.98379,0.87199 -10e-6,0.35777 0.23848,0.77513 0.71548,1.2521 l 13.41531,13.32587 0,-13.79541 c -3e-5,-0.46206 -0.10437,-0.81607 -0.31303,-1.06204 -0.2087,-0.24593 -0.58135,-0.44343 -1.11794,-0.59251 l 0,-0.62605 8.31749,0 0,0.62605 c -0.53664,0.14908 -0.90929,0.34658 -1.11794,0.59251 -0.20871,0.24597 -0.31306,0.59998 -0.31303,1.06204 l 0,20.4807 c -3e-5,0.46208 0.10432,0.8161 0.31303,1.06204 0.20865,0.24595 0.5813,0.45091 1.11794,0.61487 l 0,0.60369 -8.96589,0 0,-0.60369 c 0.65583,-0.13415 0.98376,-0.40991 0.98378,-0.82727 -2e-5,-0.20869 -0.0894,-0.42482 -0.2683,-0.64841 -0.1789,-0.22359 -0.58881,-0.66331 -1.22974,-1.31917 z"
         id="path3011"
         inkscape:connector-curvature="0" />
      <path
         d="m 362.87854,488.97755 0,6.10397 15.89713,0 c 0.46206,0 0.81607,-0.10434 1.06205,-0.31303 0.24592,-0.20867 0.44342,-0.58877 0.59251,-1.1403 l 0.62604,0 0,7.42314 -0.62604,0 c -0.13418,-0.52171 -0.32796,-0.89063 -0.58133,-1.10677 -0.25343,-0.21613 -0.61117,-0.3242 -1.07323,-0.3242 l -23.32027,0 0,-0.62605 c 0.52171,-0.13415 0.89063,-0.32792 1.10677,-0.58133 0.21613,-0.25339 0.32419,-0.61114 0.3242,-1.07322 l 0,-20.4807 c -10e-6,-0.46206 -0.10435,-0.81235 -0.31303,-1.05086 -0.20868,-0.23847 -0.58133,-0.4397 -1.11794,-0.60369 l 0,-0.62605 22.62715,0 c 0.47696,3e-5 0.83843,-0.10432 1.0844,-0.31302 0.24592,-0.20866 0.44343,-0.58131 0.59251,-1.11795 l 0.60369,0 0,7.42314 -0.60369,0 c -0.14908,-0.5515 -0.34659,-0.9316 -0.59251,-1.1403 -0.24597,-0.20866 -0.60744,-0.313 -1.0844,-0.31303 l -15.20401,0 0,5.50028 9.43543,0 c 0.46206,1e-5 0.81608,-0.10433 1.06204,-0.31302 0.24593,-0.20867 0.45089,-0.58132 0.61487,-1.11795 l 0.60369,0 0,7.24427 -0.60369,0 c -0.14908,-0.5366 -0.34658,-0.91298 -0.59251,-1.12912 -0.24596,-0.21613 -0.60743,-0.3242 -1.0844,-0.32421 z"
         id="path3013"
         inkscape:connector-curvature="0" />
      <path
         d="m 408.96011,476.8367 -3.01844,5.83566 -0.53661,-0.29066 c -2e-5,-0.49188 -0.15654,-0.87943 -0.46954,-1.16266 -0.84965,-0.76019 -2.10175,-1.38623 -3.75628,-1.87815 -1.65457,-0.49187 -3.33148,-0.73782 -5.03074,-0.73784 -1.44589,2e-5 -2.72779,0.20125 -3.84572,0.60369 -1.60985,0.58135 -2.41476,1.42353 -2.41476,2.52655 0,0.73041 0.38755,1.24838 1.16266,1.55394 0.7751,0.30559 2.27314,0.54781 4.49413,0.72666 l 3.5327,0.26831 c 3.0855,0.23851 5.43317,0.83474 7.04303,1.7887 0.89433,0.53663 1.63217,1.25211 2.21353,2.14645 0.73036,1.11796 1.09555,2.3775 1.09558,3.77865 -3e-5,2.54891 -1.14778,4.5612 -3.44326,6.03688 -2.19119,1.41606 -5.15746,2.12409 -8.89882,2.12409 -3.7712,0 -7.41569,-0.79746 -10.93347,-2.39239 -0.2385,-0.10434 -0.43973,-0.15651 -0.60369,-0.15651 -0.29812,0 -0.57388,0.17887 -0.82728,0.53661 l -0.55897,-0.22359 2.57127,-6.12632 0.55897,0.22359 c -10e-6,0.0894 -10e-6,0.14906 0,0.17887 -10e-6,0.38756 0.14905,0.71549 0.44717,0.98379 0.74529,0.65586 2.03465,1.22601 3.86808,1.71045 1.83342,0.48444 3.64448,0.72666 5.4332,0.72666 1.58001,0 2.99607,-0.20868 4.24818,-0.62605 1.55019,-0.50679 2.3253,-1.32662 2.32532,-2.45947 -2e-5,-0.90925 -0.53663,-1.54275 -1.60984,-1.9005 -0.7155,-0.23849 -2.00486,-0.43972 -3.86807,-0.60369 l -3.51034,-0.29067 c -1.89306,-0.14905 -3.33893,-0.34282 -4.33762,-0.58133 -0.9987,-0.23848 -1.87069,-0.58877 -2.61598,-1.05086 -0.95398,-0.59623 -1.69928,-1.4086 -2.23589,-2.43712 -0.53661,-1.02849 -0.80492,-2.15388 -0.80491,-3.37618 -10e-6,-2.74266 1.17756,-4.83694 3.53269,-6.28283 2.14644,-1.3117 4.79969,-1.96756 7.95975,-1.96758 1.71416,2e-5 3.31282,0.19007 4.79597,0.57015 1.48312,0.38012 3.25319,1.04716 5.31023,2.00111 0.61111,0.28324 1.03593,0.42485 1.27445,0.42482 0.23847,3e-5 0.54404,-0.16394 0.91671,-0.49189 z"
         id="path3015"
         inkscape:connector-curvature="0" />
      <path
         d="m 434.44919,488.73161 -13.97428,0 0,8.60815 c -1e-5,0.46208 0.10433,0.8161 0.31303,1.06204 0.20867,0.24595 0.58132,0.45091 1.11794,0.61487 l 0,0.60369 -8.8541,0 0,-0.62605 c 0.5217,-0.13415 0.89062,-0.32792 1.10676,-0.58133 0.21613,-0.25339 0.3242,-0.61114 0.3242,-1.07322 l 0,-20.4807 c 0,-0.46206 -0.10434,-0.81235 -0.31302,-1.05086 -0.20869,-0.23847 -0.58133,-0.4397 -1.11794,-0.60369 l 0,-0.62605 8.8541,0 0,0.62605 c -0.53662,0.14908 -0.90927,0.34658 -1.11794,0.59251 -0.2087,0.24597 -0.31304,0.59998 -0.31303,1.06204 l 0,7.3337 13.97428,0 0,-7.3337 c -3e-5,-0.46206 -0.10064,-0.81235 -0.30185,-1.05086 -0.20125,-0.23847 -0.57762,-0.4397 -1.12912,-0.60369 l 0,-0.62605 8.8541,0 0,0.62605 c -0.53664,0.14908 -0.90929,0.34658 -1.11794,0.59251 -0.20871,0.24597 -0.31305,0.59998 -0.31302,1.06204 l 0,20.4807 c -3e-5,0.46208 0.10431,0.8161 0.31302,1.06204 0.20865,0.24595 0.5813,0.45091 1.11794,0.61487 l 0,0.60369 -8.8541,0 0,-0.62605 c 0.52169,-0.13415 0.89061,-0.32792 1.10676,-0.58133 0.21612,-0.25339 0.32418,-0.61114 0.32421,-1.07322 z"
         id="path3017"
         inkscape:connector-curvature="0" />
    </g>
  </g>
</svg>
