<?xml version="1.0" encoding="UTF-8" standalone="no"?>
<!-- Created with Inkscape (http://www.inkscape.org/) -->

<svg
   xmlns:dc="http://purl.org/dc/elements/1.1/"
   xmlns:cc="http://creativecommons.org/ns#"
   xmlns:rdf="http://www.w3.org/1999/02/22-rdf-syntax-ns#"
   xmlns:svg="http://www.w3.org/2000/svg"
   xmlns="http://www.w3.org/2000/svg"
   xmlns:sodipodi="http://sodipodi.sourceforge.net/DTD/sodipodi-0.dtd"
   xmlns:inkscape="http://www.inkscape.org/namespaces/inkscape"
   width="269.29132"
   height="269.29132"
   id="svg2"
   version="1.1"
   inkscape:version="0.48.5 r10040"
   sodipodi:docname="New document 1">
  <defs
     id="defs4" />
  <sodipodi:namedview
     id="base"
     pagecolor="#ffffff"
     bordercolor="#666666"
     borderopacity="1.0"
     inkscape:pageopacity="0.0"
     inkscape:pageshadow="2"
     inkscape:zoom="2.0721054"
     inkscape:cx="134.64566"
     inkscape:cy="134.64566"
     inkscape:document-units="mm"
     inkscape:current-layer="layer1"
     showgrid="false"
     units="mm"
     inkscape:window-width="1366"
     inkscape:window-height="745"
     inkscape:window-x="-8"
     inkscape:window-y="-8"
     inkscape:window-maximized="1" />
  <metadata
     id="metadata7">
    <rdf:RDF>
      <cc:Work
         rdf:about="">
        <dc:format>image/svg+xml</dc:format>
        <dc:type
           rdf:resource="http://purl.org/dc/dcmitype/StillImage" />
        <dc:title></dc:title>
      </cc:Work>
    </rdf:RDF>
  </metadata>
  <g
     inkscape:label="Layer 1"
     inkscape:groupmode="layer"
     id="layer1"
     transform="translate(0,-783.07085)">
    <g
       transform="scale(0.72505768,1.3792006)"
       style="font-size:83.58289337px;font-style:normal;font-variant:normal;font-weight:normal;font-stretch:normal;line-height:125%;letter-spacing:0px;word-spacing:0px;fill:#000000;fill-opacity:1;stroke:none;font-family:Times New Roman;-inkscape-font-specification:Times New Roman"
       id="text2985">
      <path
         d="m 265.66327,635.8783 -14.77393,0 -18.73269,-25.87479 c -1.38763,0.0544 -2.51676,0.0816 -3.38739,0.0816 -0.35372,2e-5 -0.73463,-0.007 -1.14273,-0.0204 -0.40814,-0.0136 -0.82987,-0.034 -1.26518,-0.0612 l 0,16.07992 c -10e-6,3.48262 0.3809,5.64565 1.14274,6.4891 1.03388,1.19715 2.58474,1.79572 4.65256,1.79572 l 2.16304,0 0,1.51005 -23.71175,0 0,-1.51005 2.08141,0 c 2.33988,0 4.01317,-0.76182 5.01987,-2.28547 0.57136,-0.84344 0.85704,-2.84322 0.85705,-5.99935 l 0,-35.75128 c -1e-5,-3.48257 -0.38092,-5.6456 -1.14273,-6.4891 -1.06112,-1.1971 -2.63918,-1.79568 -4.73419,-1.79573 l -2.08141,0 0,-1.51004 20.16111,0 c 5.87689,5e-5 10.20976,0.42858 12.99861,1.28558 2.78878,0.8571 5.15587,2.43516 7.10128,4.73418 1.94532,2.29912 2.91801,5.04032 2.91805,8.22361 -4e-5,3.40104 -1.10877,6.3531 -3.32617,8.8562 -2.21749,2.50316 -5.6525,4.27168 -10.30502,5.30555 l 11.42735,15.87585 c 2.61192,3.64588 4.85657,6.06739 6.73397,7.26453 1.8773,1.19716 4.32601,1.95898 7.34615,2.28547 z m -39.30192,-28.44594 c 0.51694,3e-5 0.96587,0.007 1.3468,0.0204 0.38089,0.0136 0.69378,0.0204 0.93867,0.0204 5.27833,3e-5 9.25749,-1.1427 11.9375,-3.4282 2.67995,-2.28544 4.01995,-5.19669 4.01998,-8.73376 -3e-5,-3.45537 -1.08155,-6.26459 -3.24455,-8.42767 -2.16306,-2.16298 -5.0267,-3.2445 -8.59092,-3.24455 -1.57808,5e-5 -3.71391,0.25853 -6.40748,0.77542 z"
         style=""
         id="path2990" />
      <path
         d="m 303.25109,617.34967 -21.42628,0 -3.7547,8.73376 c -0.92509,2.14943 -1.38762,3.7547 -1.38761,4.81581 -1e-5,0.84345 0.40131,1.58486 1.20395,2.22425 0.80263,0.63939 2.53713,1.05431 5.20353,1.24476 l 0,1.51005 -17.42671,0 0,-1.51005 c 2.31268,-0.40811 3.80911,-0.93867 4.48932,-1.59166 1.3876,-1.30598 2.92485,-3.95876 4.61175,-7.95834 l 19.4673,-45.54614 1.42842,0 19.26325,46.03589 c 1.5508,3.70029 2.95881,6.10139 4.22404,7.20331 1.26511,1.10192 3.02682,1.72091 5.28514,1.85694 l 0,1.51005 -21.83439,0 0,-1.51005 c 2.2038,-0.10883 3.69344,-0.47613 4.46891,-1.10192 0.77538,-0.62578 1.16309,-1.3876 1.16314,-2.28547 -5e-5,-1.19714 -0.54421,-3.0881 -1.63248,-5.67286 z m -1.14274,-3.02009 -9.38675,-22.36495 -9.63162,22.36495 z"
         style=""
         id="path2992" />
      <path
         d="m 333.73762,582.04732 0,-1.51004 23.71175,0 0,1.51004 -1.99979,0 c -2.25829,5e-5 -3.90437,0.66665 -4.93825,1.99979 -0.65301,0.8707 -0.97951,2.96572 -0.97948,6.28504 l 0,27.05833 c -3e-5,4.16283 -0.45576,7.53662 -1.3672,10.12136 -0.91149,2.58477 -2.48275,4.83622 -4.71378,6.75438 -2.23107,1.91817 -4.92466,2.87725 -8.08077,2.87725 -2.55756,0 -4.57095,-0.63259 -6.04017,-1.89776 -1.46924,-1.26517 -2.20385,-2.71399 -2.20385,-4.34647 0,-1.33319 0.3401,-2.33988 1.0203,-3.02009 0.89786,-0.84344 1.94537,-1.26516 3.14252,-1.26517 0.87065,10e-6 1.65288,0.28569 2.34669,0.85705 0.69379,0.57138 1.57125,2.09502 2.63237,4.57094 0.62577,1.46923 1.42841,2.20385 2.40791,2.20385 0.7346,0 1.4216,-0.44893 2.061,-1.3468 0.63937,-0.89786 0.95907,-2.48952 0.95908,-4.775 l 0,-37.79187 c -10e-6,-2.80237 -0.17687,-4.65251 -0.53055,-5.55043 -0.2721,-0.68015 -0.84347,-1.26512 -1.71411,-1.75491 -1.16995,-0.65294 -2.40791,-0.97944 -3.71388,-0.97949 z"
         style=""
         id="path2994" />
    </g>
  </g>
</svg>
