<?xml version="1.0" encoding="UTF-8" standalone="no"?>
<!-- Created with Inkscape (http://www.inkscape.org/) -->

<svg
   xmlns:dc="http://purl.org/dc/elements/1.1/"
   xmlns:cc="http://creativecommons.org/ns#"
   xmlns:rdf="http://www.w3.org/1999/02/22-rdf-syntax-ns#"
   xmlns:svg="http://www.w3.org/2000/svg"
   xmlns="http://www.w3.org/2000/svg"
   xmlns:sodipodi="http://sodipodi.sourceforge.net/DTD/sodipodi-0.dtd"
   xmlns:inkscape="http://www.inkscape.org/namespaces/inkscape"
   width="269.29132"
   height="269.29132"
   id="svg2"
   version="1.1"
   inkscape:version="0.48.5 r10040"
   sodipodi:docname="ruben2.gcode">
  <defs
     id="defs4" />
  <sodipodi:namedview
     id="base"
     pagecolor="#ffffff"
     bordercolor="#666666"
     borderopacity="1.0"
     inkscape:pageopacity="0.0"
     inkscape:pageshadow="2"
     inkscape:zoom="2.0721054"
     inkscape:cx="190.97716"
     inkscape:cy="134.64566"
     inkscape:document-units="mm"
     inkscape:current-layer="layer1"
     showgrid="false"
     units="mm"
     inkscape:window-width="1366"
     inkscape:window-height="745"
     inkscape:window-x="-8"
     inkscape:window-y="-8"
     inkscape:window-maximized="1" />
  <metadata
     id="metadata7">
    <rdf:RDF>
      <cc:Work
         rdf:about="">
        <dc:format>image/svg+xml</dc:format>
        <dc:type
           rdf:resource="http://purl.org/dc/dcmitype/StillImage" />
        <dc:title></dc:title>
      </cc:Work>
    </rdf:RDF>
  </metadata>
  <g
     inkscape:label="Layer 1"
     inkscape:groupmode="layer"
     id="layer1"
     transform="translate(0,-783.07085)">
    <g
       transform="scale(0.55903727,1.7887895)"
       style="font-size:44.46367264px;font-style:normal;font-variant:normal;font-weight:normal;font-stretch:normal;line-height:125%;letter-spacing:0px;word-spacing:0px;fill:#000000;fill-opacity:1;stroke:none;font-family:Times New Roman;-inkscape-font-specification:Times New Roman"
       id="text3010">
      <path
         d="m 281.36295,449.89764 0,5.91906 -0.46696,0 c -0.15146,-1.13585 -0.4228,-2.04032 -0.81403,-2.71343 -0.39125,-0.67309 -0.94866,-1.20736 -1.67223,-1.60282 -0.72359,-0.39543 -1.47241,-0.59315 -2.24647,-0.59317 -0.87503,2e-5 -1.59861,0.26716 -2.17074,0.80141 -0.57214,0.53429 -0.8582,1.14218 -0.8582,1.82368 0,0.52166 0.18089,0.99704 0.54268,1.42613 0.52165,0.63104 1.76268,1.47241 3.72308,2.52411 1.5986,0.85821 2.69028,1.51659 3.27505,1.97513 0.58474,0.45855 1.03487,0.99914 1.3504,1.62175 0.3155,0.62262 0.47326,1.27468 0.47327,1.95619 -1e-5,1.29572 -0.50273,2.41264 -1.50816,3.35077 -1.00545,0.93813 -2.29906,1.40719 -3.88083,1.40719 -0.49642,0 -0.96338,-0.0379 -1.40089,-0.11358 -0.26083,-0.0421 -0.80141,-0.19562 -1.62175,-0.46065 -0.82034,-0.26504 -1.33989,-0.39755 -1.55864,-0.39755 -0.21035,0 -0.37652,0.0631 -0.49851,0.18931 -0.12201,0.1262 -0.21245,0.38703 -0.27135,0.78247 l -0.46696,0 0,-5.86857 0.46696,0 c 0.21876,1.2284 0.51324,2.1476 0.88345,2.7576 0.3702,0.60999 0.93602,1.11692 1.69747,1.52078 0.76143,0.40386 1.5965,0.60579 2.50518,0.60579 1.05171,0 1.88257,-0.27766 2.49257,-0.83296 0.60999,-0.55531 0.91499,-1.21158 0.915,-1.96882 -1e-5,-0.42068 -0.1157,-0.84557 -0.34707,-1.27468 -0.23139,-0.42909 -0.59107,-0.82874 -1.07906,-1.19895 -0.32815,-0.25241 -1.22421,-0.78878 -2.68819,-1.60913 -1.46399,-0.82033 -2.50519,-1.4745 -3.1236,-1.9625 -0.61841,-0.48799 -1.08747,-1.02647 -1.40719,-1.61544 -0.31973,-0.58895 -0.47959,-1.23681 -0.47959,-1.94357 0,-1.22839 0.47117,-2.28642 1.41351,-3.17408 0.94233,-0.88763 2.14129,-1.33146 3.59687,-1.33147 0.90868,10e-6 1.87205,0.22298 2.89012,0.66889 0.47116,0.21036 0.8035,0.31553 0.99703,0.31551 0.21874,2e-5 0.39753,-0.0652 0.53637,-0.19562 0.13882,-0.13039 0.2503,-0.39332 0.33445,-0.78878 z"
         style="font-size:25.84698486px"
         id="path3015" />
      <path
         d="m 296.23001,450.75584 0,-0.46697 6.05789,0 0,0.46697 -0.64365,0 c -0.67312,1e-5 -1.19056,0.28187 -1.55233,0.84558 -0.17671,0.26084 -0.26505,0.86663 -0.26504,1.81736 l 0,6.94133 c -1e-5,1.71641 -0.17039,3.04788 -0.51113,3.99442 -0.34077,0.94655 -1.00966,1.75847 -2.00668,2.43578 -0.99704,0.6773 -2.35375,1.01595 -4.07014,1.01595 -1.86785,0 -3.28557,-0.32392 -4.25314,-0.97178 -0.96758,-0.64786 -1.6533,-1.51868 -2.05716,-2.61247 -0.26924,-0.74881 -0.40386,-2.15391 -0.40386,-4.21528 l 0,-6.68891 c 0,-1.0517 -0.14514,-1.74163 -0.43541,-2.06978 -0.29027,-0.32812 -0.75934,-0.49219 -1.40719,-0.4922 l -0.64365,0 0,-0.46697 7.39567,0 0,0.46697 -0.65628,0 c -0.70675,1e-5 -1.21158,0.22298 -1.51447,0.66889 -0.21035,0.30291 -0.31552,0.93394 -0.31551,1.89309 l 0,7.45877 c -10e-6,0.66469 0.061,1.42613 0.183,2.28433 0.12199,0.8582 0.34285,1.52709 0.66258,2.00667 0.31971,0.47959 0.78036,0.87503 1.38195,1.18634 0.60158,0.31131 1.33988,0.46696 2.21492,0.46696 1.11901,0 2.12025,-0.24399 3.0037,-0.73199 0.88343,-0.488 1.48711,-1.11272 1.81106,-1.87416 0.32391,-0.76144 0.48587,-2.05084 0.48589,-3.86821 l 0,-6.92871 c -2e-5,-1.06853 -0.11781,-1.73742 -0.35338,-2.00668 -0.32815,-0.37019 -0.81614,-0.55529 -1.46399,-0.5553 z"
         style="font-size:25.84698486px"
         id="path3017" />
      <path
         d="m 320.04508,467.4024 -4.56865,0 -5.79286,-8.00145 c -0.42911,0.0168 -0.77828,0.0252 -1.04751,0.0252 -0.10938,0 -0.22717,-0.002 -0.35338,-0.006 -0.12621,-0.004 -0.25662,-0.0105 -0.39123,-0.0189 l 0,4.97251 c -1e-5,1.07696 0.11778,1.74585 0.35337,2.00668 0.31972,0.3702 0.7993,0.5553 1.43875,0.5553 l 0.66889,0 0,0.46696 -7.33256,0 0,-0.46696 0.64365,0 c 0.72358,0 1.24102,-0.23558 1.55233,-0.70675 0.17669,-0.26083 0.26503,-0.87923 0.26503,-1.85523 l 0,-11.05564 c 0,-1.07695 -0.11779,-1.74584 -0.35337,-2.00668 -0.32814,-0.37019 -0.81614,-0.55529 -1.46399,-0.5553 l -0.64365,0 0,-0.46697 6.23457,0 c 1.81736,2e-5 3.15724,0.13254 4.01966,0.39755 0.8624,0.26505 1.59439,0.75305 2.19599,1.46399 0.60156,0.71098 0.90235,1.55866 0.90237,2.54305 -2e-5,1.05173 -0.34287,1.96462 -1.02858,2.73867 -0.68573,0.77407 -1.74796,1.32097 -3.1867,1.64068 l 3.53377,4.90941 c 0.8077,1.12745 1.50183,1.87627 2.08239,2.24647 0.58054,0.3702 1.33777,0.60579 2.27171,0.70675 z m -12.15363,-8.79655 c 0.15985,1e-5 0.29868,0.002 0.41648,0.006 0.11778,0.004 0.21454,0.006 0.29027,0.006 1.63226,10e-6 2.86276,-0.35337 3.69152,-1.06013 0.82875,-0.70674 1.24312,-1.60701 1.24313,-2.70081 -10e-6,-1.06853 -0.33445,-1.93725 -1.00333,-2.60615 -0.6689,-0.66888 -1.55445,-1.00332 -2.65664,-1.00334 -0.488,2e-5 -1.14848,0.0799 -1.98143,0.23979 z"
         style="font-size:25.84698486px"
         id="path3019" />
      <path
         d="m 335.40435,449.89764 0.39124,5.81809 -0.39124,0 c -0.52166,-1.74163 -1.26628,-2.99527 -2.23384,-3.76094 -0.9676,-0.76563 -2.12869,-1.14846 -3.48329,-1.14847 -1.13586,10e-6 -2.16234,0.28818 -3.07942,0.86451 -0.91711,0.57636 -1.63858,1.49555 -2.16444,2.7576 -0.52586,1.26207 -0.78879,2.83123 -0.78878,4.70748 -1e-5,1.54814 0.2482,2.89013 0.74461,4.02597 0.49641,1.13586 1.24312,2.00668 2.24016,2.61247 0.99702,0.60579 2.13497,0.90868 3.41387,0.90868 1.1106,0 2.0908,-0.23769 2.9406,-0.71306 0.84977,-0.47538 1.78369,-1.41982 2.80177,-2.83333 l 0.39124,0.25241 c -0.85822,1.52289 -1.85945,2.63771 -3.0037,3.34446 -1.14428,0.70676 -2.5031,1.06013 -4.07646,1.06013 -2.83543,0 -5.03141,-1.05171 -6.58795,-3.15515 -1.16109,-1.56495 -1.74164,-3.40755 -1.74164,-5.52782 0,-1.70798 0.38282,-3.27714 1.14847,-4.70748 0.76565,-1.43032 1.81947,-2.53883 3.16146,-3.32553 1.34199,-0.78667 2.80808,-1.18001 4.39828,-1.18002 1.23681,10e-6 2.4568,0.30291 3.65998,0.90868 0.35336,0.18512 0.60577,0.27767 0.75723,0.27765 0.22716,2e-5 0.42488,-0.0799 0.59317,-0.23979 0.21874,-0.22715 0.3744,-0.54267 0.46696,-0.94654 z"
         style="font-size:25.84698486px"
         id="path3021" />
      <path
         d="m 342.4214,458.22723 7.95098,0 0,-4.89679 c -1e-5,-0.87502 -0.0547,-1.45136 -0.16407,-1.72902 -0.0841,-0.21033 -0.26084,-0.39123 -0.53006,-0.54269 -0.36181,-0.20191 -0.74463,-0.30288 -1.14848,-0.30289 l -0.60579,0 0,-0.46697 7.31995,0 0,0.46697 -0.60579,0 c -0.40387,1e-5 -0.7867,0.0968 -1.14847,0.29027 -0.26926,0.13464 -0.45226,0.33867 -0.549,0.6121 -0.0968,0.27346 -0.14515,0.83087 -0.14514,1.67223 l 0,11.04302 c -10e-6,0.86662 0.0547,1.43875 0.16407,1.7164 0.0841,0.21035 0.25661,0.39124 0.51745,0.54269 0.37018,0.20193 0.75722,0.30289 1.16109,0.30289 l 0.60579,0 0,0.46696 -7.31995,0 0,-0.46696 0.60579,0 c 0.69833,0 1.20736,-0.20613 1.5271,-0.61841 0.21033,-0.26923 0.3155,-0.91709 0.31551,-1.94357 l 0,-5.21231 -7.95098,0 0,5.21231 c 0,0.86662 0.0547,1.43875 0.16407,1.7164 0.0841,0.21035 0.26082,0.39124 0.53007,0.54269 0.36178,0.20193 0.7446,0.30289 1.14847,0.30289 l 0.61841,0 0,0.46696 -7.33257,0 0,-0.46696 0.60579,0 c 0.70675,0 1.21999,-0.20613 1.53971,-0.61841 0.20193,-0.26923 0.3029,-0.91709 0.3029,-1.94357 l 0,-11.04302 c 0,-0.87502 -0.0547,-1.45136 -0.16407,-1.72902 -0.0841,-0.21033 -0.25662,-0.39123 -0.51744,-0.54269 -0.37021,-0.20191 -0.75724,-0.30288 -1.1611,-0.30289 l -0.60579,0 0,-0.46697 7.33257,0 0,0.46697 -0.61841,0 c -0.40387,1e-5 -0.78669,0.0968 -1.14847,0.29027 -0.26084,0.13464 -0.44173,0.33867 -0.54269,0.6121 -0.10097,0.27346 -0.15145,0.83087 -0.15145,1.67223 z"
         style="font-size:25.84698486px"
         id="path3023" />
      <path
         d="m 367.61212,461.67265 -6.62581,0 -1.1611,2.70081 c -0.28607,0.66469 -0.4291,1.1611 -0.4291,1.48923 0,0.26083 0.1241,0.4901 0.37231,0.68782 0.2482,0.19773 0.78458,0.32604 1.60913,0.38493 l 0,0.46696 -5.389,0 0,-0.46696 c 0.71517,-0.1262 1.17792,-0.29027 1.38827,-0.4922 0.42909,-0.40386 0.90447,-1.2242 1.42612,-2.46102 l 6.02003,-14.08458 0.44172,0 5.95692,14.23603 c 0.47957,1.14427 0.91498,1.88678 1.30623,2.22754 0.39123,0.34075 0.93601,0.53216 1.63437,0.57423 l 0,0.46696 -6.75202,0 0,-0.46696 c 0.6815,-0.0337 1.14215,-0.14724 1.38196,-0.34075 0.23978,-0.19352 0.35967,-0.4291 0.35968,-0.70676 -1e-5,-0.3702 -0.16828,-0.95495 -0.50482,-1.75426 z m -0.35338,-0.93392 -2.90273,-6.91609 -2.97846,6.91609 z"
         style="font-size:25.84698486px"
         id="path3025" />
      <path
         d="m 374.12435,450.28887 4.64438,0 10.46247,12.83515 0,-9.86931 c -10e-6,-1.0517 -0.1178,-1.70797 -0.35337,-1.96881 -0.31133,-0.35336 -0.80353,-0.53005 -1.47661,-0.53006 l -0.59317,0 0,-0.46697 5.95692,0 0,0.46697 -0.60579,0 c -0.7236,1e-5 -1.23683,0.21877 -1.53971,0.65627 -0.18512,0.26925 -0.27767,0.88345 -0.27765,1.8426 l 0,14.42535 -0.45435,0 -11.28281,-13.7817 0,10.5382 c 0,1.05172 0.11358,1.70799 0.34076,1.96882 0.31971,0.35337 0.81192,0.53006 1.47661,0.53006 l 0.60578,0 0,0.46696 -5.95692,0 0,-0.46696 0.59317,0 c 0.73199,0 1.24944,-0.21875 1.55233,-0.65627 0.1851,-0.26924 0.27765,-0.88344 0.27766,-1.84261 l 0,-11.90122 c -0.49642,-0.58053 -0.87293,-0.96336 -1.12955,-1.14847 -0.25662,-0.18509 -0.63313,-0.35757 -1.12954,-0.51745 -0.244,-0.0757 -0.6142,-0.11357 -1.11061,-0.11358 z"
         style="font-size:25.84698486px"
         id="path3027" />
      <path
         d="m 393.58531,467.4024 0,-0.46696 0.64365,0 c 0.72358,0 1.23681,-0.23137 1.53971,-0.69413 0.1851,-0.27765 0.27765,-0.90027 0.27765,-1.86785 l 0,-11.05564 c 0,-1.06853 -0.11779,-1.73742 -0.35337,-2.00668 -0.32814,-0.37019 -0.81614,-0.55529 -1.46399,-0.5553 l -0.64365,0 0,-0.46697 6.96657,0 c 2.55776,2e-5 4.50343,0.29029 5.83702,0.87083 1.33356,0.58056 2.40631,1.54814 3.21826,2.90273 0.8119,1.35463 1.21787,2.91958 1.21788,4.69487 -10e-6,2.38109 -0.72359,4.37093 -2.17074,5.96954 -1.62386,1.78371 -4.0975,2.67556 -7.42091,2.67556 z m 4.88417,-1.23681 c 1.06854,0.23558 1.9646,0.35337 2.68818,0.35337 1.95198,0 3.57162,-0.68571 4.85894,-2.05715 1.28728,-1.37144 1.93093,-3.23087 1.93095,-5.57831 -2e-5,-2.36425 -0.64367,-4.22789 -1.93095,-5.59092 -1.28732,-1.36301 -2.94061,-2.04452 -4.9599,-2.04454 -0.75724,2e-5 -1.61965,0.12201 -2.58722,0.366 z"
         style="font-size:25.84698486px"
         id="path3029" />
      <path
         d="m 429.28899,467.4024 -4.56866,0 -5.79285,-8.00145 c -0.42911,0.0168 -0.77828,0.0252 -1.04751,0.0252 -0.10938,0 -0.22718,-0.002 -0.35338,-0.006 -0.12621,-0.004 -0.25662,-0.0105 -0.39124,-0.0189 l 0,4.97251 c 0,1.07696 0.11779,1.74585 0.35338,2.00668 0.31972,0.3702 0.7993,0.5553 1.43875,0.5553 l 0.66889,0 0,0.46696 -7.33257,0 0,-0.46696 0.64365,0 c 0.72358,0 1.24103,-0.23558 1.55234,-0.70675 0.17668,-0.26083 0.26503,-0.87923 0.26503,-1.85523 l 0,-11.05564 c 0,-1.07695 -0.11779,-1.74584 -0.35338,-2.00668 -0.32813,-0.37019 -0.81613,-0.55529 -1.46399,-0.5553 l -0.64365,0 0,-0.46697 6.23458,0 c 1.81736,2e-5 3.15724,0.13254 4.01966,0.39755 0.8624,0.26505 1.59439,0.75305 2.19598,1.46399 0.60157,0.71098 0.90236,1.55866 0.90238,2.54305 -2e-5,1.05173 -0.34288,1.96462 -1.02858,2.73867 -0.68573,0.77407 -1.74797,1.32097 -3.1867,1.64068 l 3.53376,4.90941 c 0.80771,1.12745 1.50184,1.87627 2.0824,2.24647 0.58053,0.3702 1.33777,0.60579 2.27171,0.70675 z m -12.15364,-8.79655 c 0.15986,1e-5 0.29869,0.002 0.41648,0.006 0.11779,0.004 0.21455,0.006 0.29028,0.006 1.63225,10e-6 2.86276,-0.35337 3.69152,-1.06013 0.82874,-0.70674 1.24312,-1.60701 1.24313,-2.70081 -1e-5,-1.06853 -0.33445,-1.93725 -1.00334,-2.60615 -0.6689,-0.66888 -1.55444,-1.00332 -2.65663,-1.00334 -0.48801,2e-5 -1.14848,0.0799 -1.98144,0.23979 z"
         style="font-size:25.84698486px"
         id="path3031" />
      <path
         d="m 440.91255,461.67265 -6.62581,0 -1.1611,2.70081 c -0.28607,0.66469 -0.4291,1.1611 -0.4291,1.48923 0,0.26083 0.1241,0.4901 0.37231,0.68782 0.2482,0.19773 0.78458,0.32604 1.60913,0.38493 l 0,0.46696 -5.389,0 0,-0.46696 c 0.71517,-0.1262 1.17792,-0.29027 1.38827,-0.4922 0.4291,-0.40386 0.90447,-1.2242 1.42612,-2.46102 l 6.02003,-14.08458 0.44172,0 5.95692,14.23603 c 0.47957,1.14427 0.91498,1.88678 1.30623,2.22754 0.39123,0.34075 0.93601,0.53216 1.63437,0.57423 l 0,0.46696 -6.75202,0 0,-0.46696 c 0.6815,-0.0337 1.14215,-0.14724 1.38196,-0.34075 0.23978,-0.19352 0.35967,-0.4291 0.35968,-0.70676 -1e-5,-0.3702 -0.16828,-0.95495 -0.50482,-1.75426 z m -0.35337,-0.93392 -2.90274,-6.91609 -2.97846,6.91609 z"
         style="font-size:25.84698486px"
         id="path3033" />
    </g>
  </g>
</svg>
