<?xml version="1.0" encoding="UTF-8" standalone="no"?>
<!-- Created with Inkscape (http://www.inkscape.org/) -->

<svg
   xmlns:dc="http://purl.org/dc/elements/1.1/"
   xmlns:cc="http://creativecommons.org/ns#"
   xmlns:rdf="http://www.w3.org/1999/02/22-rdf-syntax-ns#"
   xmlns:svg="http://www.w3.org/2000/svg"
   xmlns="http://www.w3.org/2000/svg"
   xmlns:sodipodi="http://sodipodi.sourceforge.net/DTD/sodipodi-0.dtd"
   xmlns:inkscape="http://www.inkscape.org/namespaces/inkscape"
   width="269.29132"
   height="269.29132"
   id="svg2"
   version="1.1"
   inkscape:version="0.48.5 r10040"
   sodipodi:docname="New document 1">
  <defs
     id="defs4" />
  <sodipodi:namedview
     id="base"
     pagecolor="#ffffff"
     bordercolor="#666666"
     borderopacity="1.0"
     inkscape:pageopacity="0.0"
     inkscape:pageshadow="2"
     inkscape:zoom="2.0721054"
     inkscape:cx="134.64566"
     inkscape:cy="134.64566"
     inkscape:document-units="mm"
     inkscape:current-layer="layer1"
     showgrid="false"
     units="mm"
     inkscape:window-width="1366"
     inkscape:window-height="745"
     inkscape:window-x="-8"
     inkscape:window-y="-8"
     inkscape:window-maximized="1" />
  <metadata
     id="metadata7">
    <rdf:RDF>
      <cc:Work
         rdf:about="">
        <dc:format>image/svg+xml</dc:format>
        <dc:type
           rdf:resource="http://purl.org/dc/dcmitype/StillImage" />
        <dc:title></dc:title>
      </cc:Work>
    </rdf:RDF>
  </metadata>
  <g
     inkscape:label="Layer 1"
     inkscape:groupmode="layer"
     id="layer1"
     transform="translate(0,-783.07029)">
    <g
       transform="scale(0.77043895,1.2979614)"
       style="font-size:34.57395935px;font-style:normal;font-variant:normal;font-weight:normal;font-stretch:normal;line-height:125%;letter-spacing:0px;word-spacing:0px;fill:#000000;fill-opacity:1;stroke:none;font-family:Kristen ITC;-inkscape-font-specification:Kristen ITC"
       id="text2985">
      <path
         d="m 221.4186,621.1381 0,-0.62463 8.10327,0 0,0.62463 -0.86097,0 c -0.90039,2e-5 -1.59254,0.37705 -2.07647,1.13108 -0.23636,0.34891 -0.35454,1.15924 -0.35451,2.43098 l 0,9.285 c -3e-5,2.29593 -0.22793,4.07696 -0.68372,5.34309 -0.45583,1.26614 -1.35056,2.35221 -2.68421,3.25819 -1.33368,0.906 -3.14847,1.35899 -5.44438,1.35899 -2.49852,0 -4.39491,-0.4333 -5.68917,-1.2999 -1.29428,-0.8666 -2.21153,-2.03144 -2.75174,-3.49454 -0.36015,-1.00164 -0.54022,-2.88115 -0.54022,-5.63852 l 0,-8.94736 c 0,-1.4068 -0.19414,-2.32967 -0.58242,-2.76862 -0.38829,-0.43891 -1.01573,-0.65837 -1.88232,-0.65839 l -0.86098,0 0,-0.62463 9.89275,0 0,0.62463 -0.87786,0 c -0.94539,2e-5 -1.62066,0.29826 -2.02581,0.89473 -0.28137,0.40519 -0.42206,1.24928 -0.42205,2.53228 l 0,9.97715 c -10e-6,0.88912 0.0816,1.90765 0.24479,3.05561 0.16318,1.14797 0.45861,2.0427 0.88629,2.68421 0.42767,0.64151 1.04385,1.17047 1.84856,1.58689 0.80469,0.41642 1.79228,0.62463 2.96276,0.62462 1.49684,10e-6 2.83613,-0.32638 4.01787,-0.97914 1.18171,-0.65276 1.98922,-1.48841 2.42254,-2.50695 0.43328,-1.01853 0.64993,-2.74329 0.64995,-5.17428 l 0,-9.26811 c -2e-5,-1.42931 -0.15758,-2.32405 -0.47269,-2.68421 -0.43894,-0.49518 -1.09171,-0.74278 -1.95829,-0.7428 z"
         style="font-family:Times New Roman;-inkscape-font-specification:Times New Roman"
         id="path2990" />
      <path
         d="m 249.79693,620.51347 -15.0417,21.50743 9.38629,0 c 1.44057,0 2.54633,-0.31512 3.31728,-0.94538 0.77092,-0.63025 1.45463,-1.90764 2.05114,-3.83217 l 0.5571,0.10129 -1.08044,6.06057 -18.63752,0 0,-0.62462 14.68718,-20.89969 -7.32671,0 c -1.2155,2e-5 -2.09616,0.13226 -2.642,0.39672 -0.54585,0.2645 -0.96227,0.64716 -1.24926,1.14796 -0.28699,0.50085 -0.54866,1.43779 -0.785,2.81083 l -0.64151,0 0.47269,-5.72294 z"
         style="font-family:Times New Roman;-inkscape-font-specification:Times New Roman"
         id="path2992" />
      <path
         d="m 254.49008,621.1381 0,-0.62463 9.80833,0 0,0.62463 -0.82721,0 c -0.93413,2e-5 -1.61503,0.27576 -2.04269,0.82721 -0.27012,0.36016 -0.40518,1.22676 -0.40517,2.5998 l 0,11.19264 c -1e-5,1.72195 -0.18852,3.11751 -0.56554,4.18669 -0.37704,1.06918 -1.02698,2.0005 -1.94985,2.79394 -0.92288,0.79345 -2.03708,1.19017 -3.3426,1.19017 -1.05793,0 -1.89076,-0.26167 -2.49851,-0.78501 -0.60774,-0.52333 -0.91162,-1.12264 -0.91162,-1.79791 0,-0.55147 0.14069,-0.96789 0.42205,-1.24925 0.3714,-0.34889 0.8047,-0.52334 1.2999,-0.52334 0.36014,0 0.68371,0.11818 0.9707,0.35452 0.28699,0.23635 0.64995,0.8666 1.08888,1.89076 0.25885,0.60775 0.59086,0.91162 0.99603,0.91162 0.30387,0 0.58804,-0.1857 0.85253,-0.5571 0.26448,-0.3714 0.39672,-1.02979 0.39672,-1.97517 l 0,-15.63256 c 0,-1.1592 -0.0732,-1.92451 -0.21946,-2.29593 -0.11255,-0.28134 -0.3489,-0.52332 -0.70904,-0.72592 -0.48395,-0.27009 -0.99603,-0.40514 -1.53624,-0.40516 z"
         style="font-family:Times New Roman;-inkscape-font-specification:Times New Roman"
         id="path2994" />
      <path
         d="m 296.84655,620.51347 0,0.62463 c -0.59652,2e-5 -1.08046,0.10694 -1.45183,0.32075 -0.37143,0.21386 -0.72595,0.6134 -1.06356,1.19861 -0.22512,0.39393 -0.57964,1.33368 -1.06355,2.81926 l -6.38133,18.45183 -0.67527,0 -5.21648,-14.63654 -5.18272,14.63654 -0.60774,0 -6.80338,-19.00893 c -0.50645,-1.41805 -0.82721,-2.25651 -0.96226,-2.51539 -0.22509,-0.42765 -0.53178,-0.74559 -0.92006,-0.95382 -0.38828,-0.20819 -0.91443,-0.31229 -1.57845,-0.31231 l 0,-0.62463 8.47467,0 0,0.62463 -0.40516,0 c -0.5965,2e-5 -1.05231,0.13507 -1.36743,0.40516 -0.31513,0.27013 -0.4727,0.59651 -0.47269,0.97915 -10e-6,0.39393 0.24759,1.29992 0.7428,2.71797 l 4.50745,12.84706 3.7984,-10.92253 -0.67527,-1.92453 -0.54022,-1.53625 c -0.23636,-0.5627 -0.50084,-1.0579 -0.79344,-1.4856 -0.14632,-0.21381 -0.3264,-0.39388 -0.54022,-0.54021 -0.28138,-0.20256 -0.56274,-0.34887 -0.84409,-0.43893 -0.21385,-0.0675 -0.55149,-0.10127 -1.01291,-0.10129 l 0,-0.62463 8.9136,0 0,0.62463 -0.60775,0 c -0.63027,2e-5 -1.09171,0.13507 -1.38431,0.40516 -0.29263,0.27013 -0.43894,0.6359 -0.43892,1.09732 -2e-5,0.574 0.25321,1.57565 0.75968,3.00496 l 4.38927,12.4419 4.35551,-12.61072 c 0.49517,-1.39554 0.74277,-2.36343 0.7428,-2.90367 -3e-5,-0.25883 -0.0816,-0.5008 -0.24479,-0.72592 -0.16321,-0.22507 -0.36861,-0.38263 -0.61618,-0.47269 -0.4277,-0.15754 -0.9848,-0.23632 -1.6713,-0.23634 l 0,-0.62463 z"
         style="font-family:Times New Roman;-inkscape-font-specification:Times New Roman"
         id="path2996" />
      <path
         d="m 309.74426,619.99013 c 2.97118,3e-5 5.54566,1.12829 7.72343,3.38481 2.17773,2.25655 3.26661,5.073 3.26663,8.44935 -2e-5,3.47766 -1.09734,6.36445 -3.29195,8.66037 -2.19466,2.29593 -4.85073,3.44389 -7.96822,3.44389 -3.15128,0 -5.79891,-1.11983 -7.9429,-3.35948 -2.14399,-2.23965 -3.21598,-5.13769 -3.21598,-8.69414 0,-3.6352 1.238,-6.60077 3.714,-8.89672 2.14961,-1.99203 4.72127,-2.98805 7.71499,-2.98808 z m -0.32076,1.23238 c -2.04833,2e-5 -3.6915,0.7597 -4.92949,2.27904 -1.54188,1.89078 -2.31281,4.6594 -2.31281,8.30585 0,3.73652 0.79907,6.61205 2.39722,8.62661 1.22674,1.53062 2.84739,2.29593 4.86196,2.29593 2.14961,0 3.92501,-0.83846 5.32622,-2.51539 1.40117,-1.67692 2.10176,-4.32174 2.10178,-7.93445 -2e-5,-3.91657 -0.77095,-6.83712 -2.3128,-8.76167 -1.23802,-1.53059 -2.94871,-2.2959 -5.13208,-2.29592 z"
         style="font-family:Times New Roman;-inkscape-font-specification:Times New Roman"
         id="path2998" />
      <path
         d="m 341.90412,637.07453 0.5571,0.11817 -1.95829,6.21251 -17.72591,0 0,-0.62462 0.86098,0 c 0.96788,0 1.66004,-0.31513 2.07646,-0.94539 0.23634,-0.36014 0.35451,-1.19298 0.35452,-2.49851 l 0,-14.77158 c -1e-5,-1.42931 -0.15757,-2.32405 -0.47269,-2.68421 -0.43893,-0.49518 -1.0917,-0.74278 -1.95829,-0.7428 l -0.86098,0 0,-0.62463 10.36544,0 0,0.62463 c -1.2155,-0.0112 -2.06803,0.10131 -2.5576,0.33763 -0.48958,0.23637 -0.8244,0.53462 -1.00446,0.89474 -0.18008,0.36017 -0.27012,1.22114 -0.27011,2.58292 l 0,14.3833 c -1e-5,0.93414 0.09,1.57564 0.27011,1.92453 0.13504,0.23635 0.34325,0.41079 0.62462,0.52334 0.28136,0.11255 1.15921,0.16882 2.63357,0.16882 l 1.6713,0 c 1.75569,0 2.98806,-0.12943 3.69711,-0.38829 0.70902,-0.25885 1.35616,-0.71747 1.94141,-1.37586 0.58522,-0.65839 1.17046,-1.69662 1.75571,-3.1147 z"
         style="font-family:Times New Roman;-inkscape-font-specification:Times New Roman"
         id="path3000" />
    </g>
  </g>
</svg>
