<?xml version="1.0" encoding="UTF-8" standalone="no"?>
<!-- Created with Inkscape (http://www.inkscape.org/) -->

<svg
   xmlns:dc="http://purl.org/dc/elements/1.1/"
   xmlns:cc="http://creativecommons.org/ns#"
   xmlns:rdf="http://www.w3.org/1999/02/22-rdf-syntax-ns#"
   xmlns:svg="http://www.w3.org/2000/svg"
   xmlns="http://www.w3.org/2000/svg"
   xmlns:sodipodi="http://sodipodi.sourceforge.net/DTD/sodipodi-0.dtd"
   xmlns:inkscape="http://www.inkscape.org/namespaces/inkscape"
   width="269.29132"
   height="269.29132"
   id="svg2"
   version="1.1"
   inkscape:version="0.48.5 r10040"
   sodipodi:docname="New document 1">
  <defs
     id="defs4" />
  <sodipodi:namedview
     id="base"
     pagecolor="#ffffff"
     bordercolor="#666666"
     borderopacity="1.0"
     inkscape:pageopacity="0.0"
     inkscape:pageshadow="2"
     inkscape:zoom="2.0721054"
     inkscape:cx="134.64566"
     inkscape:cy="134.64566"
     inkscape:document-units="mm"
     inkscape:current-layer="layer1"
     showgrid="false"
     units="mm"
     inkscape:window-width="1366"
     inkscape:window-height="745"
     inkscape:window-x="-8"
     inkscape:window-y="-8"
     inkscape:window-maximized="1" />
  <metadata
     id="metadata7">
    <rdf:RDF>
      <cc:Work
         rdf:about="">
        <dc:format>image/svg+xml</dc:format>
        <dc:type
           rdf:resource="http://purl.org/dc/dcmitype/StillImage" />
        <dc:title></dc:title>
      </cc:Work>
    </rdf:RDF>
  </metadata>
  <g
     inkscape:label="Layer 1"
     inkscape:groupmode="layer"
     id="layer1"
     transform="translate(0,-783.07085)">
    <g
       transform="scale(0.61508397,1.6257943)"
       style="font-size:55.47138214px;font-style:normal;font-variant:normal;font-weight:normal;font-stretch:normal;line-height:125%;letter-spacing:0px;word-spacing:0px;fill:#000000;fill-opacity:1;stroke:none;font-family:Times New Roman;-inkscape-font-specification:Times New Roman"
       id="text2985">
      <path
         d="m 288.97248,491.9534 0,1.00216 c -1.30015,0.23478 -2.28426,0.6501 -2.95233,1.24594 -0.95707,0.88484 -1.80575,2.23912 -2.54605,4.06285 l -12.81151,31.25682 -1.00217,0 -13.7595,-31.6631 c -0.70423,-1.62511 -1.2008,-2.61825 -1.48971,-2.97942 -0.45143,-0.55974 -1.00669,-0.99762 -1.66577,-1.31366 -0.65908,-0.31596 -1.54839,-0.5191 -2.66793,-0.60943 l 0,-1.00216 15.00544,0 0,1.00216 c -1.69738,0.16255 -2.79886,0.45147 -3.30445,0.86675 -0.50561,0.41534 -0.75841,0.94803 -0.7584,1.59805 -1e-5,0.90288 0.41531,2.31134 1.24594,4.22536 l 9.34455,21.53308 8.6674,-21.26223 c 0.84865,-2.09459 1.27299,-3.54818 1.27303,-4.36078 -4e-5,-0.52363 -0.26186,-1.02471 -0.78549,-1.50326 -0.52368,-0.47847 -1.40848,-0.81704 -2.65439,-1.01571 -0.0903,-0.018 -0.2438,-0.0451 -0.46046,-0.0813 l 0,-1.00216 z"
         style=""
         id="path2990" />
      <path
         d="m 306.79483,527.67935 0,1.00217 -15.73675,0 0,-1.00217 1.30011,0 c 1.51679,0 2.61827,-0.4424 3.30444,-1.3272 0.43337,-0.57782 0.65005,-1.96821 0.65006,-4.17118 l 0,-23.72702 c -10e-6,-1.85985 -0.11738,-3.08773 -0.35211,-3.68365 -0.18058,-0.45139 -0.55075,-0.83962 -1.11052,-1.16468 -0.79451,-0.43333 -1.62514,-0.65002 -2.49187,-0.65006 l -1.30011,0 0,-1.00216 15.73675,0 0,1.00216 -1.3272,0 c -1.49875,4e-5 -2.5912,0.44244 -3.27736,1.3272 -0.45144,0.57786 -0.67715,1.96826 -0.67714,4.17119 l 0,23.72702 c -10e-6,1.85988 0.11736,3.08776 0.35211,3.68364 0.18056,0.45143 0.55976,0.83966 1.1376,1.16468 0.77644,0.43338 1.59804,0.65006 2.46479,0.65006 z"
         style=""
         id="path2992" />
      <path
         d="m 307.47197,491.9534 9.96752,0 22.45399,27.54609 0,-21.18097 c -3e-5,-2.2571 -0.25283,-3.66555 -0.7584,-4.22536 -0.66814,-0.75836 -1.72448,-1.13756 -3.16902,-1.1376 l -1.27302,0 0,-1.00216 12.78442,0 0,1.00216 -1.30011,0 c -1.55295,4e-5 -2.65443,0.46952 -3.30445,1.40846 -0.39729,0.57786 -0.59592,1.89602 -0.59588,3.9545 l 0,30.95888 -0.97509,0 -24.21456,-29.57751 0,22.6165 c -1e-5,2.25714 0.24377,3.6656 0.73132,4.22536 0.68616,0.7584 1.74249,1.1376 3.16902,1.1376 l 1.30011,0 0,1.00217 -12.78442,0 0,-1.00217 1.27302,0 c 1.57096,0 2.68147,-0.46948 3.33153,-1.40845 0.39725,-0.57783 0.59588,-1.89599 0.59589,-3.95451 l 0,-25.54175 c -1.06538,-1.24591 -1.87343,-2.0675 -2.42417,-2.46479 -0.55074,-0.39722 -1.3588,-0.76739 -2.42416,-1.11051 -0.52366,-0.16248 -1.31817,-0.24374 -2.38354,-0.24378 z"
         style=""
         id="path2994" />
      <path
         d="m 373.66926,516.38464 -14.21995,0 -2.49188,5.79633 c -0.61395,1.42651 -0.92092,2.49188 -0.92091,3.1961 -10e-6,0.55977 0.26633,1.05183 0.79902,1.47617 0.53268,0.42434 1.68382,0.69971 3.45342,0.82611 l 0,1.00217 -11.56557,0 0,-1.00217 c 1.53485,-0.27086 2.52799,-0.62297 2.97942,-1.05634 0.92091,-0.86674 1.94114,-2.6273 3.06068,-5.2817 l 12.91985,-30.22757 0.948,0 12.78442,30.5526 c 1.02922,2.45577 1.96367,4.0493 2.80336,4.78061 0.83962,0.73132 2.00881,1.14212 3.50759,1.2324 l 0,1.00217 -14.49082,0 0,-1.00217 c 1.4626,-0.0722 2.45123,-0.316 2.96588,-0.73131 0.5146,-0.41531 0.77191,-0.92091 0.77194,-1.5168 -3e-5,-0.79451 -0.36117,-2.04947 -1.08342,-3.7649 z m -0.75839,-2.00434 -6.2297,-14.84293 -6.39221,14.84293 z"
         style=""
         id="path2996" />
      <path
         d="m 414.81235,491.9534 12.81151,0 0,1.00216 -0.70423,0 c -0.46952,4e-5 -1.15569,0.2077 -2.05851,0.62297 -0.90289,0.41535 -1.72449,1.01124 -2.46479,1.78766 -0.74038,0.77648 -1.65226,2.04048 -2.73565,3.79199 l -8.857,13.9491 0,9.20911 c -3e-5,2.25714 0.25277,3.6656 0.75839,4.22536 0.68615,0.7584 1.76957,1.1376 3.25028,1.1376 l 1.19177,0 0,1.00217 -15.60133,0 0,-1.00217 1.30011,0 c 1.5529,0 2.65438,-0.46948 3.30445,-1.40845 0.39724,-0.57783 0.59587,-1.89599 0.59588,-3.95451 l 0,-8.69448 -10.07585,-15.38465 c -1.19178,-1.80567 -1.99983,-2.93424 -2.42417,-3.3857 -0.42434,-0.45139 -1.30462,-0.99311 -2.64085,-1.62514 -0.36114,-0.18053 -0.88479,-0.27082 -1.57096,-0.27086 l 0,-1.00216 15.70967,0 0,1.00216 -0.81257,0 c -0.8487,4e-5 -1.62967,0.19867 -2.34291,0.59589 -0.71327,0.39729 -1.0699,0.99317 -1.06988,1.78765 -2e-5,0.65009 0.55073,1.8238 1.65222,3.52113 l 7.66524,11.83643 7.20477,-11.3218 c 1.0834,-1.69733 1.62511,-2.96133 1.62514,-3.79199 -3e-5,-0.50556 -0.13094,-0.95699 -0.39274,-1.35428 -0.26186,-0.39722 -0.63654,-0.70871 -1.12405,-0.93445 -0.48757,-0.22568 -1.21888,-0.33854 -2.19394,-0.33858 z"
         style=""
         id="path2998" />
    </g>
  </g>
</svg>
