<?xml version="1.0" encoding="UTF-8" standalone="no"?>
<!-- Created with Inkscape (http://www.inkscape.org/) -->

<svg
   xmlns:dc="http://purl.org/dc/elements/1.1/"
   xmlns:cc="http://creativecommons.org/ns#"
   xmlns:rdf="http://www.w3.org/1999/02/22-rdf-syntax-ns#"
   xmlns:svg="http://www.w3.org/2000/svg"
   xmlns="http://www.w3.org/2000/svg"
   xmlns:sodipodi="http://sodipodi.sourceforge.net/DTD/sodipodi-0.dtd"
   xmlns:inkscape="http://www.inkscape.org/namespaces/inkscape"
   width="269.29132"
   height="269.29132"
   id="svg2"
   version="1.1"
   inkscape:version="0.48.5 r10040"
   sodipodi:docname="visit2.gcode">
  <defs
     id="defs4" />
  <sodipodi:namedview
     id="base"
     pagecolor="#ffffff"
     bordercolor="#666666"
     borderopacity="1.0"
     inkscape:pageopacity="0.0"
     inkscape:pageshadow="2"
     inkscape:zoom="2.0721054"
     inkscape:cx="134.64566"
     inkscape:cy="134.64566"
     inkscape:document-units="mm"
     inkscape:current-layer="layer1"
     showgrid="false"
     units="mm"
     inkscape:window-width="1366"
     inkscape:window-height="745"
     inkscape:window-x="-8"
     inkscape:window-y="-8"
     inkscape:window-maximized="1" />
  <metadata
     id="metadata7">
    <rdf:RDF>
      <cc:Work
         rdf:about="">
        <dc:format>image/svg+xml</dc:format>
        <dc:type
           rdf:resource="http://purl.org/dc/dcmitype/StillImage" />
        <dc:title></dc:title>
      </cc:Work>
    </rdf:RDF>
  </metadata>
  <g
     inkscape:label="Layer 1"
     inkscape:groupmode="layer"
     id="layer1"
     transform="translate(0,-783.07085)">
    <path
       sodipodi:type="inkscape:offset"
       inkscape:radius="0"
       inkscape:original="M 197.3125 788.25 C 196.76528 788.25 196.38761 788.4869 196.28125 788.90625 C 196.22418 789.13126 195.95664 789.41043 195.5625 789.625 C 194.98576 789.93897 194.9165 790.02858 194.875 790.59375 C 194.84271 791.03298 194.70975 791.3124 194.46875 791.5 C 194.27971 791.64715 194.07005 791.90644 193.96875 792.09375 C 193.78593 792.43179 193.74273 792.44451 191.625 792.34375 C 188.94977 792.21646 187.11953 792.44316 185.375 793.09375 C 183.93772 793.62976 182.74005 794.31517 182.875 794.53125 C 182.9243 794.61017 183.34075 794.65625 183.78125 794.65625 C 184.90297 794.65625 188.73881 795.18158 191.59375 795.71875 C 193.8518 796.14361 194.87734 796.38671 198.21875 797.28125 C 198.96331 797.48058 200.11942 797.79606 200.78125 797.96875 C 202.91984 798.52677 205.55519 799.60064 205.96875 800.09375 C 206.20077 800.37039 206.875 800.3934 206.875 800.125 C 206.875 799.45715 204.63285 796.94506 203.09375 795.875 C 202.28424 795.31219 200.07437 794.26145 198.875 793.875 C 198.69457 793.81688 198.59375 793.61877 198.59375 793.28125 C 198.59375 793.01037 198.5066 792.65468 198.375 792.46875 C 198.15779 792.16178 198.13107 792.06851 198.34375 791.625 C 198.52657 791.24375 198.55647 791.02014 198.4375 790.59375 C 198.35367 790.29331 198.23505 790.0625 198.15625 790.0625 C 198.07741 790.0625 198 789.77035 198 789.4375 C 198 788.63466 197.78296 788.25 197.3125 788.25 z M 183.125 794.8125 C 182.25143 794.8125 181.31423 795.28608 180.90625 795.90625 C 180.15754 797.04434 179.7303 797.92398 179.875 798.0625 C 180.16927 798.34421 186.92041 799.59837 192.59375 800.40625 C 197.26082 801.07084 198.24462 801.26717 200.46875 802 C 203.03556 802.84573 204.70644 803.48482 206.15625 804.25 C 206.84943 804.61585 207.50993 804.9355 207.625 804.9375 C 207.98076 804.94404 207.75012 802.56062 207.3125 801.6875 C 206.66805 800.40173 204.73992 799.46014 200.46875 798.25 C 197.41547 797.38493 191.17756 795.92381 188.90625 795.5625 C 186.06566 795.11062 183.74103 794.8125 183.125 794.8125 z M 172.46875 798.03125 C 172.15162 798.04842 172.02625 798.13068 172 798.3125 C 171.9506 798.65453 172.38601 798.89109 174 799.40625 L 174.90625 799.71875 L 173.59375 799.71875 C 172.8432 799.72413 172.2442 799.7842 172.1875 799.875 C 172.00152 800.17278 172.61867 800.60889 173.6875 800.9375 C 175.03763 801.3526 175.13875 801.44659 174.40625 801.5625 C 173.75396 801.66571 173.43017 801.93999 173.5625 802.28125 C 173.70767 802.65561 174.34133 802.8493 175.78125 802.9375 C 177.60911 803.04944 177.63254 803.05002 177.25 803.53125 C 176.65637 804.27806 177.49273 804.624 179.875 804.625 C 181.27565 804.62577 181.3434 804.65864 181.03125 804.875 C 180.35233 805.34557 180.85939 805.96875 181.90625 805.96875 C 182.31304 805.96875 184.19226 805.62774 184.8125 805.4375 C 185.05867 805.362 185.0584 805.39971 184.75 805.8125 C 184.33748 806.36463 184.46423 806.70771 185.15625 806.90625 C 185.57536 807.02649 186.8565 806.96436 187.59375 806.78125 C 187.90578 806.70377 187.9375 806.72934 187.9375 807.21875 C 187.9375 807.66229 187.99605 807.78719 188.3125 807.90625 C 189.11658 808.20877 190.52624 808.01248 191.125 807.5 C 191.27028 807.37565 191.42055 807.29615 191.46875 807.34375 C 191.5169 807.3914 191.3022 808.8261 190.96875 810.53125 C 188.99927 820.60245 188.8102 821.43354 188.21875 823.09375 C 187.38259 825.4409 186.71875 827.77309 186.71875 828.375 C 186.71875 828.65067 186.8136 829.11283 186.9375 829.40625 C 187.30315 830.27224 187.00044 831.34082 186.1875 832.09375 C 185.44183 832.78438 185.1773 833.52467 185.25 834.5625 C 185.2779 834.96797 185.2743 835.31255 185.25 835.3125 C 185.14748 835.31229 183.85529 834.08142 182.4375 832.625 C 180.1556 830.28094 179.84476 829.96364 178.25 828.6875 C 177.17576 827.8279 176.64464 827.49725 176.28125 827.46875 C 176.00806 827.4473 175.39352 827.24547 174.90625 827 C 173.24643 826.16381 173.03719 826.14159 172.21875 826.59375 C 171.82301 826.81238 171.19719 827.2996 170.8125 827.6875 C 170.42781 828.07541 169.79064 828.57385 169.40625 828.8125 C 169.02186 829.05115 168.59882 829.43836 168.46875 829.65625 C 168.25379 830.01635 165.88193 831.38669 163.53125 832.5 C 163.13828 832.68611 162.8125 832.8761 162.8125 832.9375 C 162.8125 832.99892 164.24201 833.73785 166 834.59375 C 167.75799 835.44964 170.02839 836.66392 171.0625 837.28125 C 172.99785 838.4366 175.79532 839.79696 175.9375 839.65625 C 175.98165 839.61257 175.88 839.32933 175.6875 839.03125 C 175.33246 838.48145 175.04658 837.53125 175.25 837.53125 C 175.31117 837.53125 175.78607 837.85706 176.28125 838.25 C 177.34817 839.09665 178.94352 840.21875 179.09375 840.21875 C 179.31579 840.21875 179.18162 839.97209 178.53125 839.1875 C 178.16181 838.74183 177.86995 838.3484 177.90625 838.3125 C 177.94252 838.27661 178.25137 838.4197 178.5625 838.65625 C 180.27295 839.95668 182.52025 841.13032 182.71875 840.8125 C 182.82411 840.64381 182.12971 839.75777 180.71875 838.25 C 179.38823 836.82818 179.19874 836.50366 178.84375 835.28125 C 178.64854 834.60905 178.36684 834.21272 177.3125 833.0625 C 174.93222 830.46577 173.88504 829.49485 173.4375 829.40625 C 172.61885 829.24423 172.34008 828.39547 172.875 827.71875 C 173.03678 827.51408 173.1855 827.18972 173.1875 827 C 173.19146 826.59153 173.38482 826.63486 174.6875 827.28125 C 175.1446 827.50806 175.82472 827.74705 176.1875 827.84375 C 177.2427 828.12492 178.27104 828.99431 182 832.71875 C 183.49516 834.21209 184.90204 835.50985 185.125 835.59375 C 185.58642 835.76735 185.86617 836.38811 185.75 836.9375 C 185.70673 837.14217 185.18663 837.79981 184.59375 838.40625 C 183.20281 839.82903 182.80965 840.74828 183.25 841.5625 C 183.50125 842.02706 183.81918 841.88712 184.3125 841.09375 C 184.79618 840.31587 185.17259 840.10486 185.03125 840.6875 C 184.76062 841.80298 184.73047 842.17139 184.96875 842.53125 C 185.28548 843.00981 185.77827 842.98466 186.5 842.5 C 186.96433 842.18816 187.0306 842.18586 186.9375 842.40625 C 186.5629 843.29327 186.50756 845.039 186.8125 845.96875 C 186.8655 846.13033 186.85635 846.18755 186.78125 846.09375 C 186.7114 846.00648 186.34103 845.72186 185.96875 845.46875 C 185.59647 845.21564 185.01452 844.74127 184.6875 844.40625 C 184.01159 843.71382 183.60649 843.63508 183.40625 844.15625 C 183.08842 844.98349 182.68244 847.09993 182.5 848.8125 C 182.10289 852.54018 182.90584 857.30493 184.5 860.5625 C 185.03767 861.66117 185.88458 862.6875 186.25 862.6875 C 186.96227 862.6875 187.02547 861.83288 186.5625 858.84375 C 185.94124 854.83276 185.65504 851.375 185.9375 851.375 C 186.00382 851.375 186.29142 852.06712 186.5625 852.90625 C 187.07277 854.48578 187.70145 856.06235 188.25 857.09375 C 189.00528 858.51385 190.79532 860.92174 192 862.125 C 192.71927 862.84343 193.43767 863.4375 193.59375 863.4375 C 194.20348 863.4375 194.40152 862.80794 194.03125 862.09375 C 193.92514 861.88909 193.71506 861.37808 193.5625 860.96875 C 193.40994 860.55942 193.15357 859.90933 192.96875 859.5 C 192.39171 858.22193 191.57081 855.81937 191.25 854.5 C 190.87087 852.94083 190.58775 850.08064 190.71875 849.03125 L 190.8125 848.25 L 189.71875 848.21875 L 188.59375 848.21875 L 189.53125 848.09375 C 190.0392 848.02821 190.77402 847.80109 191.1875 847.59375 C 191.90444 847.23424 193.03125 846.15243 193.03125 845.8125 C 193.03125 845.72433 192.86205 845.04872 192.65625 844.3125 C 192.20182 842.6868 192.2042 842.21181 192.59375 841.3125 C 193.0746 840.20244 193.71961 839.4375 195 838.4375 C 196.44047 837.31247 196.88863 836.79336 197.09375 836.0625 C 197.31568 835.27174 197.29485 834.91792 196.96875 834.25 C 196.8111 833.92615 196.71475 833.7093 196.78125 833.75 C 197.03812 833.9071 198.06568 833.94322 198.3125 833.8125 C 198.47679 833.7255 198.62095 833.74695 198.71875 833.84375 C 199.05882 834.18027 201.31896 833.48654 202.09375 832.8125 C 202.57434 832.39441 202.38023 829.35568 201.8125 828.46875 C 201.63772 828.19571 201.4687 828.12885 201.03125 828.15625 C 200.7268 828.17534 200.09186 828.10617 199.625 828 C 198.57283 827.76071 198 827.89418 198 828.34375 C 198 828.59623 197.95289 828.60767 197.8125 828.46875 C 197.52972 828.18892 197.00017 828.26431 196.15625 828.6875 C 194.56747 829.48419 194.25 829.94538 194.25 831.25 C 194.25 831.67889 194.17296 831.91495 194.03125 831.96875 C 193.7551 832.07361 192.31235 831.03615 191.21875 829.9375 C 190.35045 829.06519 189.86006 828.1413 189.65625 826.90625 C 189.58577 826.47913 189.7971 825.21381 190.34375 822.4375 C 190.76285 820.30899 191.1696 818.22183 191.25 817.8125 L 191.90625 814.46875 C 192.18763 813.0361 192.512 811.21523 192.65625 810.4375 C 193.00561 808.5539 193.04538 808.52346 193.53125 809.25 C 194.04185 810.01352 194.6385 810.1987 195.03125 809.71875 C 195.18275 809.5336 195.28125 809.26998 195.28125 809.15625 C 195.28125 808.8049 195.54072 808.93551 196.15625 809.59375 C 197.04199 810.54095 197.80858 811.07055 198.34375 811.09375 C 198.78941 811.11307 198.83595 811.07203 198.90625 810.53125 L 198.96875 809.96875 L 199.65625 810.53125 C 200.65384 811.36302 201.85317 811.86336 202.3125 811.65625 C 202.52083 811.56232 202.65625 811.36081 202.65625 811.1875 C 202.65625 810.78934 202.71087 810.79309 203.9375 811.40625 C 204.5166 811.69574 205.25227 811.98215 205.5625 812.03125 C 206.08307 812.11358 206.125 812.08087 206.125 811.75 C 206.125 811.55284 206.00753 811.24974 205.875 811.0625 C 205.51885 810.55933 205.75418 810.48583 206.4375 810.875 C 207.39793 811.42198 208.9211 811.94125 209.65625 811.96875 C 210.73125 812.00899 210.74585 811.79076 209.6875 811.03125 L 209.0625 810.5625 L 210.03125 810.6875 C 211.63244 810.88879 212.54648 810.85675 212.84375 810.5625 C 213.07469 810.33391 213.06829 810.28253 212.875 810.09375 C 212.75387 809.97543 212.2041 809.7249 211.625 809.5625 L 210.5625 809.28125 L 211.34375 809.25 C 212.74512 809.23102 212.55084 808.74289 210.9375 808.21875 C 209.53068 807.7617 209.35184 807.628 210.21875 807.625 C 210.80389 807.62313 210.9375 807.56173 210.9375 807.34375 C 210.9375 806.95263 208.90892 805.92499 208.53125 806.125 C 208.03804 806.38621 207.79199 806.29603 207.03125 805.53125 C 206.31971 804.81592 205.96875 804.68301 205.96875 805.15625 C 205.96875 805.27423 205.90805 805.375 205.84375 805.375 C 205.53294 805.375 204.49215 804.47181 204.1875 803.9375 C 204.06818 803.72825 203.99583 803.69472 203.84375 803.84375 C 203.51896 804.16203 203.21781 804.07464 202.5 803.375 C 201.88867 802.77919 201.77031 802.71853 201.4375 802.84375 C 201.01664 803.00209 199.95134 802.60963 199.71875 802.21875 C 199.52006 801.88485 199.1806 801.83163 198.71875 802.0625 C 198.10321 802.37019 197.07201 802.26836 196.875 801.875 C 196.74489 801.61528 196.65263 801.5723 196.34375 801.6875 C 195.707 801.92503 194.35024 802.12485 193.90625 802.03125 C 193.53763 801.9535 193.4629 801.87768 193.5 801.46875 C 193.54981 800.92045 193.63582 800.90157 192 801.5 C 190.70915 801.97222 190.03125 802.01679 190.03125 801.59375 C 190.03125 801.32836 189.79727 801.3037 188.9375 801.53125 C 188.26925 801.70811 187.38198 801.614 187.53125 801.375 C 187.69722 801.1093 187.33031 801.08751 186.6875 801.3125 C 185.63439 801.68112 184.91382 801.78723 184.8125 801.625 C 184.76229 801.5446 184.81415 801.4036 184.90625 801.3125 C 185.22363 800.99841 185.0559 800.95055 184.15625 801.03125 C 183.40248 801.09889 183.25 801.06973 183.25 800.875 C 183.25 800.74676 183.48366 800.48753 183.75 800.28125 C 184.01635 800.07498 184.1746 799.8615 184.125 799.8125 C 184.07545 799.76349 183.46315 799.80421 182.75 799.90625 C 181.77125 800.0463 181.4121 800.03573 181.28125 799.90625 C 181.15041 799.77677 181.19566 799.69973 181.5 799.5625 C 182.09268 799.29528 181.77123 799.17545 180.34375 799.15625 C 178.96875 799.1377 178.3125 798.97123 178.3125 798.625 C 178.3125 798.43573 178.0357 798.37589 176.6875 798.375 C 175.79816 798.37438 174.63149 798.31395 174.09375 798.21875 C 173.31324 798.0806 172.78588 798.01408 172.46875 798.03125 z M 218.125 830.53125 C 217.66571 830.27607 217.24303 830.40733 216.4375 830.6875 C 215.7313 830.9331 215.3506 830.98645 214.59375 830.90625 C 213.69738 830.81126 213.63828 830.83752 213.28125 831.21875 C 213.05173 831.46381 212.68293 832.32546 212.3125 833.4375 C 211.16101 836.89433 210.79435 837.40361 209.21875 837.84375 C 208.28012 838.10594 208.06921 838.22371 206.96875 839.28125 C 205.71235 840.48865 205.73098 840.49102 201.875 842.28125 C 199.77131 843.25795 199.61474 843.26642 198.3125 842.875 C 197.49075 842.62802 197.03104 842.57905 196.4375 842.65625 C 195.49306 842.77913 193.00432 843.47121 192.8125 843.65625 C 192.72896 843.73685 192.80422 844.11853 192.96875 844.65625 C 193.1358 845.20225 193.20575 845.79103 193.15625 846.15625 C 193.09645 846.59744 193.1163 846.7499 193.28125 846.8125 C 193.78622 847.00426 195.51808 846.88702 197.1875 846.53125 C 200.18259 845.89297 200.74655 845.70757 201.78125 845.09375 C 202.62531 844.59302 205.37431 843.53602 206.53125 843.25 C 206.98971 843.13666 207.10089 843.44201 206.8125 844.125 C 206.307 845.32224 205.27645 846.06756 202.5625 847.21875 C 202.19789 847.37341 201.90625 847.56775 201.90625 847.65625 C 201.90625 847.87282 202.70494 847.72305 204.375 847.1875 C 206.03207 846.65612 207.94578 845.71447 209.59375 844.625 C 212.47446 842.72058 213.33235 841.82965 214.875 839.125 C 215.37824 838.24269 215.83585 837.4806 215.90625 837.4375 C 215.97668 837.39443 216.42441 837.7308 216.875 838.1875 C 217.78602 839.11089 218.45171 839.46875 219.34375 839.46875 C 219.98407 839.46875 220.29336 839.23798 219.84375 839.09375 C 217.20066 838.24582 216.18076 837.03436 216.625 835.3125 C 216.72242 834.93488 216.88645 834.35872 216.96875 834.03125 C 217.39821 832.32289 217.76567 831.42405 218 831.46875 C 218.13179 831.49387 218.53364 831.90878 218.90625 832.40625 C 220.776 834.90262 221.3116 835.68841 221.3125 835.9375 C 221.31302 836.08727 221.14969 836.6314 220.9375 837.15625 C 220.72529 837.6811 220.60095 838.19265 220.65625 838.28125 C 220.71158 838.36983 221.2737 838.68352 221.90625 838.96875 C 223.19056 839.54785 224.46875 840.33685 224.46875 840.53125 C 224.46875 840.60134 223.87266 841.00447 223.15625 841.4375 C 221.68534 842.32659 221 842.90234 221 843.25 C 221 843.38037 221.28996 843.69733 221.625 843.9375 C 223.39787 845.20836 228.64202 846.56305 231.25 846.4375 C 232.63796 846.37068 232.53637 846.09558 230.78125 845.1875 C 227.94694 843.72105 228.10993 843.66546 231.625 844.84375 C 236.18541 846.37246 240.01162 847.11543 238.84375 846.25 C 238.31196 845.85593 235.65019 844.82411 234.15625 844.4375 C 230.55318 843.50509 229.38489 842.96034 227.9375 841.46875 C 227.34648 840.85969 226.41947 840.14911 225.59375 839.65625 C 224.12764 838.78114 222.84518 837.87442 222.375 837.375 C 222.13438 837.11943 222.08675 836.9244 222.15625 836.34375 C 222.24658 835.58898 222.04717 835.07905 221.28125 834.25 C 221.09131 834.0444 220.52762 833.34029 220.03125 832.6875 C 219.07313 831.42747 218.58429 830.78643 218.125 830.53125 z M 188.5 832.125 C 188.63479 831.98762 190.46875 833.64631 190.46875 833.90625 C 190.46875 833.99929 189.97057 834.35293 189.34375 834.6875 C 188.0509 835.37758 187.9375 835.42301 187.9375 835.03125 C 187.9375 834.54874 188.3751 832.25231 188.5 832.125 z M 161.3125 832.4375 C 161.12265 832.24963 160.52748 832.52796 158.6875 833.625 C 157.77767 834.16747 155.955 835.12995 154.625 835.78125 C 151.66876 837.22891 150.46875 837.93937 150.46875 838.21875 C 150.46875 838.52725 150.83403 838.47761 152.1875 838 C 152.84933 837.76645 153.55329 837.52725 153.71875 837.46875 C 154.34891 837.24612 153.08135 838.15519 151.9375 838.75 C 151.2988 839.08214 150.52029 839.60721 150.21875 839.9375 C 149.71967 840.48421 149.6808 840.61147 149.75 841.21875 C 149.79302 841.59646 149.96009 841.99306 150.125 842.15625 C 150.41304 842.44129 150.4138 842.46887 151.4375 842 C 152.00678 841.73925 152.82405 841.30282 153.21875 841.0625 C 154.37098 840.36092 154.51194 840.45709 155.0625 842.28125 C 155.32194 843.14084 155.68462 844.22646 155.875 844.65625 C 156.06538 845.08605 156.2986 845.4375 156.375 845.4375 C 156.45139 845.4375 156.60907 845.22554 156.75 844.96875 C 156.89093 844.71197 157.14275 844.32833 157.3125 844.125 L 157.625 843.75 L 158.4375 844.1875 C 160.20526 845.16217 162.35167 845.541 162.875 844.96875 C 163.17572 844.63993 163.23957 844.73805 162.15625 843.4375 C 161.57256 842.73647 161.55433 842.75 160.65625 842.75 L 159.75 842.75 L 158.4375 841.4375 C 157.72329 840.72118 156.765 839.68838 156.3125 839.15625 C 154.93698 837.53868 155.00956 837.72075 155.625 837.21875 C 155.92249 836.97609 156.84391 836.20458 157.65625 835.5 C 158.46859 834.79543 159.6389 833.8617 160.28125 833.40625 C 160.92425 832.95035 161.383 832.5073 161.3125 832.4375 z M 161.34375 833.46875 L 160.8125 833.9375 C 160.53413 834.20004 159.45482 835.13488 158.40625 836 C 156.75796 837.35991 156.5269 837.60042 156.625 837.875 C 156.78816 838.33164 157.76697 838.77065 158.8125 838.84375 C 159.3708 838.88277 159.87382 839.01208 160.125 839.1875 C 160.34832 839.34347 161.20235 840.47069 162.03125 841.6875 C 164.14196 844.78595 164.77594 845.2547 168 846.15625 C 169.97105 846.70743 172.30328 847.62712 172.1875 847.8125 C 172.14146 847.88621 171.4565 848.3098 170.65625 848.71875 C 169.856 849.1277 169.35568 849.39675 169.5625 849.34375 C 169.9321 849.24901 170.16052 849.18804 172.46875 848.28125 C 173.79459 847.7604 174.66304 847.59372 177.125 847.375 C 178.48479 847.2542 179.33659 847.06097 180.78125 846.59375 L 182.65625 846 L 182.84375 845.3125 C 182.95746 844.93105 183.01775 844.5551 182.96875 844.5 C 182.91978 844.44495 182.44399 844.29261 181.90625 844.15625 C 180.38964 843.77165 178.73258 843.08593 177.71875 842.4375 C 177.21072 842.11257 175.85335 841.29206 174.71875 840.625 C 173.58415 839.95795 172.33727 839.18527 171.9375 838.90625 C 171.15522 838.36026 170.712 838.3413 170.6875 838.8125 C 170.6791 838.97471 170.66865 839.1681 170.65625 839.25 C 170.64382 839.33186 170.41372 838.9912 170.15625 838.5 C 169.56024 837.363 169.58123 837.36541 168.15625 836.5625 C 166.71459 835.75017 166.50073 835.72893 166.625 836.34375 C 166.76202 837.02174 166.49944 836.87572 166 836 C 165.44012 835.01829 165.29469 834.92002 164.125 834.5 C 163.6035 834.31273 162.75755 834.00019 162.25 833.8125 L 161.34375 833.46875 z M 195.46875 834.71875 C 195.47815 834.70945 195.558 834.75225 195.6875 834.875 C 195.83664 835.01631 195.9146 835.17965 195.875 835.21875 C 195.83543 835.25791 195.73453 835.14922 195.625 834.96875 C 195.5299 834.81199 195.45935 834.72805 195.46875 834.71875 z M 191.34375 836.34375 C 191.38512 836.34375 191.32174 836.4397 191.21875 836.5625 C 191.11576 836.6853 191.01015 836.78125 190.96875 836.78125 C 190.92738 836.78125 190.99076 836.6853 191.09375 836.5625 C 191.19674 836.4397 191.30235 836.34375 191.34375 836.34375 z M 195.71875 836.5 C 195.76011 836.5 195.69674 836.59595 195.59375 836.71875 C 195.49077 836.84155 195.38515 836.9375 195.34375 836.9375 C 195.30239 836.9375 195.33451 836.84155 195.4375 836.71875 C 195.54049 836.59595 195.67735 836.5 195.71875 836.5 z M 190.59375 836.9375 C 190.63511 836.9375 190.57174 837.03345 190.46875 837.15625 C 190.36577 837.27905 190.26015 837.375 190.21875 837.375 C 190.17739 837.375 190.24076 837.27905 190.34375 837.15625 C 190.44674 837.03345 190.55235 836.9375 190.59375 836.9375 z M 195.09375 837.25 C 195.13512 837.25 195.10299 837.34595 195 837.46875 C 194.89701 837.59155 194.76015 837.6875 194.71875 837.6875 C 194.67738 837.6875 194.74076 837.59155 194.84375 837.46875 C 194.94674 837.34595 195.05235 837.25 195.09375 837.25 z M 187.90625 840.125 L 187.6875 840.65625 C 187.3781 841.30827 187.3125 841.35046 187.3125 841.0625 C 187.3125 840.93513 187.46042 840.69326 187.625 840.5 L 187.90625 840.125 z M 240.65625 844.3125 L 240.53125 845.71875 C 240.39582 847.4859 239.8931 851.33817 239.5 853.59375 C 238.91638 856.9425 238.8765 857.26893 238.9375 858.53125 C 239.00863 860.00359 239.23226 860.42824 240.1875 860.90625 C 240.76971 861.19759 241.9345 861.32101 241.9375 861.09375 C 241.96739 858.56762 242.0488 856.46575 242.125 856.34375 C 242.18938 856.24065 242.46787 856.236 242.9375 856.3125 C 244.12307 856.5055 244.9773 856.46649 246.15625 856.15625 C 247.41002 855.82632 248.27769 855.78234 249.4375 856 C 249.87114 856.0814 250.3006 856.108 250.375 856.0625 C 250.51958 855.97407 249.97091 855.18253 249.21875 854.375 C 248.9657 854.10331 248.32684 853.65938 247.78125 853.375 C 246.66663 852.79404 246.06908 852.22289 245.46875 851.1875 L 245.0625 850.46875 L 246.3125 850.46875 C 247.00287 850.46387 247.88229 850.40865 248.28125 850.34375 C 248.68021 850.27885 249.27469 850.28605 249.59375 850.34375 C 250.61663 850.52885 250.65492 850.27463 249.75 849.4375 C 248.62178 848.39381 248.40239 848.24883 247.1875 848 C 246.34379 847.8272 245.82625 847.60558 244.75 846.90625 C 244.00062 846.41932 243.322 846.03125 243.25 846.03125 C 243.17801 846.03125 243.00612 845.75246 242.84375 845.4375 C 242.48037 844.73264 241.89147 844.3314 241.1875 844.3125 L 240.65625 844.3125 z M 172.4375 844.625 C 172.50236 844.56273 174.58115 846.8152 174.65625 847.03125 C 174.68066 847.10153 174.45081 847.216 174.15625 847.25 C 173.73792 847.29833 173.59038 847.23846 173.4375 847 C 173.15247 846.55538 172.366 844.6937 172.4375 844.625 z M 186.90625 846.40625 C 186.93499 846.38083 187.09892 846.56707 187.28125 846.84375 C 187.4636 847.12044 187.5611 847.34375 187.5 847.34375 C 187.3744 847.34375 186.82555 846.47755 186.90625 846.40625 z M 177.8125 848.5625 L 177.3125 848.625 L 177.28125 849.875 C 177.22574 851.73691 177.18557 851.8125 176.5 851.8125 C 175.41243 851.8125 174.52278 852.75842 174.96875 853.4375 C 175.08836 853.61958 175.24935 853.63953 175.96875 853.46875 C 176.43088 853.35904 176.8339 853.30315 176.875 853.34375 C 176.91605 853.38437 176.74834 854.41168 176.5 855.625 C 175.99348 858.09979 175.93895 859.15786 176.28125 859.96875 C 176.54499 860.59354 177.17519 861.31547 177.625 861.5 C 178.14005 861.7113 178.2242 861.59276 178.25 860.53125 C 178.26375 859.96486 178.29825 858.989 178.34375 858.375 C 178.43859 857.09467 179.1216 853.62641 179.3125 853.4375 C 179.38282 853.36791 179.73418 853.22802 180.09375 853.125 C 180.90824 852.89164 181.39491 852.32133 181.25 851.75 C 181.16306 851.40723 181.06508 851.3683 180.71875 851.4375 C 180.49521 851.48214 180.20727 851.53835 180.0625 851.59375 C 179.83087 851.68245 179.8125 851.61604 179.8125 850.875 C 179.8125 850.41191 179.71584 849.82738 179.59375 849.59375 C 179.28589 849.00463 178.42321 848.5043 177.8125 848.5625 z M 245.28125 848.59375 C 245.43158 848.61284 245.53125 848.71843 245.53125 848.90625 C 245.53125 849.03161 245.64061 849.15625 245.78125 849.15625 C 245.93717 849.15625 245.99335 849.20065 245.90625 849.28125 C 245.61194 849.5534 245.13669 849.56845 244.8125 849.34375 C 244.48304 849.11539 244.49281 849.11888 244.78125 848.8125 C 244.93919 848.64472 245.13092 848.57466 245.28125 848.59375 z M 161.09375 849.125 C 160.80414 849.13984 160.51844 849.24825 160.28125 849.46875 C 159.79122 849.92402 159.79538 850.95561 160.28125 851.1875 C 161.06781 851.56289 162.41317 851.31301 162.59375 850.75 C 162.88171 849.85215 161.96258 849.08048 161.09375 849.125 z M 172.96875 849.125 C 172.58368 849.13009 172.21695 849.25832 172 849.53125 C 171.5778 850.06245 171.56609 850.8555 172 851.15625 C 172.42606 851.45194 173.36508 851.44917 173.9375 851.15625 C 174.52577 850.85523 174.58107 850.04408 174.03125 849.5 C 173.76194 849.23348 173.35382 849.11991 172.96875 849.125 z M 195.8125 850.0625 L 195.28125 850.125 L 195.25 851.90625 C 195.21322 853.19523 195.07852 854.17098 194.78125 855.40625 C 194.55469 856.34771 194.32455 857.75353 194.28125 858.53125 C 194.19169 860.13909 194.36167 860.50335 195.3125 860.84375 C 195.97641 861.08145 197.30165 861.10221 197.53125 860.875 C 197.65015 860.75739 197.6875 860.12643 197.6875 859.03125 C 197.6875 857.24273 197.79344 856.88097 198.625 855.1875 C 199.29409 853.82487 200.05827 853 200.6875 853 C 201.34835 853 201.41158 853.41472 201.03125 855.28125 C 200.34637 858.6424 200.33887 859.72142 201.0625 860.4375 C 201.40746 860.77886 201.5841 860.8191 202.875 860.875 C 203.66296 860.9091 204.3125 860.90225 204.3125 860.84375 C 204.3125 860.78522 204.18406 860.56106 204.03125 860.34375 C 203.34958 859.37435 203.34825 858.95492 203.9375 855.6875 C 204.25294 853.93854 204.22254 852.61593 203.875 851.96875 C 203.44322 851.16469 202.77814 850.78025 201.78125 850.78125 C 200.51804 850.78249 199.89847 850.99992 199 851.8125 L 198.1875 852.5625 L 198.125 851.96875 C 197.97038 850.82802 196.91346 849.9661 195.8125 850.0625 z M 216 850.3125 C 215.92553 850.3862 215.76734 851.66472 215.65625 853.125 C 215.37116 856.87271 215.19469 858.38673 214.6875 861.28125 C 214.1822 864.16501 214.15717 865.12089 214.5 865.96875 C 214.74397 866.57214 215.34668 867.07128 216.15625 867.3125 C 217.13078 867.60287 217.25 867.41674 217.25 865.53125 C 217.25 864.11998 217.66356 860.1159 217.9375 858.8125 C 218.51391 856.06988 219.5752 854.01147 220.625 853.625 C 221.05483 853.46677 222.08735 853.69529 222.3125 854 C 222.74832 854.58979 222.40379 856.25949 221.59375 857.4375 C 221.06266 858.20984 220.13517 859.00606 219.09375 859.59375 C 218.21608 860.08905 218.22379 860.25467 219.15625 860.46875 C 220.14599 860.69599 221.49235 860.62475 222.1875 860.3125 C 224.22469 859.39742 225.94671 856.10537 225.53125 853.9375 C 225.33897 852.9342 225.06164 852.41318 224.40625 851.84375 C 223.03122 850.64906 220.70616 850.90279 219.125 852.40625 L 218.5 853 L 218.40625 852.40625 C 218.34625 852.03494 218.11889 851.6317 217.8125 851.3125 C 217.2263 850.70178 216.19128 850.12322 216 850.3125 z M 151.34375 850.65625 C 150.84043 850.60962 150.29361 850.78889 149.78125 851.25 L 149.4375 851.5625 L 149.9375 852.625 C 150.65993 854.17708 151.03212 855.45506 151.5 858.21875 C 151.72868 859.56953 151.96645 860.77267 152.03125 860.875 C 152.10391 860.98976 152.48226 861.0625 153.03125 861.0625 L 153.9375 861.0625 L 154.53125 860.28125 C 156.26894 858.10585 158.17351 855.037 158.59375 853.71875 C 158.82278 853.00031 158.50045 852.22755 157.8125 851.8125 C 156.89908 851.26141 156.75237 851.35849 156.28125 852.8125 C 155.73712 854.49188 153.92345 857.92258 153.78125 857.53125 C 153.7265 857.38058 153.6205 856.71743 153.5625 856.0625 C 153.42625 854.52437 152.91044 852.20645 152.5625 851.53125 C 152.28728 850.99717 151.84707 850.70288 151.34375 850.65625 z M 210.46875 850.6875 C 209.91876 850.75915 209.365 850.92765 208.8125 851.1875 C 207.50871 851.80069 206.53593 852.74954 205.9375 854 C 205.48354 854.94853 205.4335 855.12379 205.4375 856.5 C 205.44081 857.69712 205.52616 858.11754 205.78125 858.65625 C 206.29905 859.74978 207.39326 860.71996 208.53125 861.0625 C 209.40464 861.32541 210.40195 861.21571 211.34375 860.75 C 212.49571 860.18036 213.6915 858.9408 213.625 858.375 C 213.55361 857.76728 212.97323 857.78022 212.3125 858.40625 C 211.64706 859.03673 211.01744 859.38931 210.25 859.5 C 209.21352 859.6495 208.41979 858.95035 208.21875 857.6875 C 208.1666 857.35995 208.38558 856.86091 208.4375 856.40625 C 208.51275 856.60032 208.75968 856.6275 209.8125 856.5625 C 212.85556 856.37463 214.87468 854.35784 214.09375 852.3125 C 213.62313 851.07991 212.11873 850.47255 210.46875 850.6875 z M 234.8125 850.71875 C 234.6643 850.77502 234.58765 851.2241 234.53125 852.375 C 234.39805 855.09149 233.36075 857.56131 232 858.46875 C 231.34795 858.90354 230.86591 858.92362 230.40625 858.46875 C 230.08631 858.15215 230.03025 857.93903 230.03125 857.0625 C 230.03234 856.31598 230.14589 855.86578 230.40625 855.3125 C 230.84206 854.38638 232.22822 852.86382 233.125 852.34375 C 233.49371 852.12993 233.8125 851.91215 233.8125 851.84375 C 233.8125 851.17926 231.86792 851.24146 230.375 851.96875 C 228.60302 852.83199 227.69855 853.93083 227.125 855.84375 C 226.84204 856.78752 226.81899 858.12403 227.0625 858.84375 C 227.41883 859.8969 228.40439 860.78758 229.5 861.0625 C 230.66326 861.3544 232.26198 860.87667 233.3125 859.9375 L 233.90625 859.40625 L 234.1875 859.96875 C 234.50743 860.612 235.11294 860.98464 236 861.125 L 236.625 861.21875 L 236.5625 859.3125 C 236.5005 857.69668 236.54483 857.06062 236.875 855.1875 C 237.38035 852.32056 237.37241 851.96051 236.84375 851.375 C 236.42688 850.91331 235.28617 850.53888 234.8125 850.71875 z M 167.3125 851.53125 C 166.56656 851.44858 165.7763 851.57966 165.0625 851.9375 C 163.98343 852.47846 163.5625 853.08105 163.5625 854.15625 C 163.5625 855.23943 163.86938 855.76093 165.28125 856.8125 C 166.89706 858.01597 167.38075 858.86324 166.6875 859.34375 C 166.28338 859.62385 165.16021 859.64055 164.9375 859.375 C 164.8493 859.26984 164.74405 858.76962 164.71875 858.28125 L 164.6875 857.40625 L 164.09375 857.4375 C 163.63192 857.45275 163.38992 857.54362 163.0625 857.90625 C 162.83084 858.16281 162.65625 858.53853 162.65625 858.75 C 162.65625 859.65398 163.56017 860.76478 164.5625 861.0625 C 164.79539 861.13166 165.52252 861.1805 166.1875 861.1875 C 168.36621 861.21056 169.48502 860.26785 169.375 858.5 C 169.30713 857.40961 168.91178 856.86134 167.34375 855.8125 C 166.6854 855.37213 166.04026 854.84649 165.90625 854.625 C 165.61895 854.15018 165.72006 853.52696 166.125 853.3125 C 166.61652 853.05219 167.41968 853.14914 167.75 853.5 C 168.11873 853.89171 168.14645 853.88484 167.84375 854.3125 C 167.45326 854.86418 167.64281 855.06153 168.46875 854.9375 C 169.36683 854.80262 169.875 854.28201 169.875 853.5 C 169.875 853.06886 169.76423 852.8609 169.28125 852.40625 C 168.75513 851.91098 168.05844 851.61392 167.3125 851.53125 z M 159.71875 852.28125 C 159.66402 852.36891 159.5887 852.96508 159.5625 853.59375 C 159.53633 854.22243 159.36727 855.40009 159.1875 856.21875 C 158.97207 857.19992 158.8855 857.98026 158.9375 858.5 C 159.02703 859.39442 159.59204 860.41235 160.21875 860.875 C 160.44723 861.04367 160.76234 861.1845 160.9375 861.1875 C 161.24107 861.192 161.26315 861.12171 161.34375 859.3125 C 161.40072 858.03434 161.55394 856.89635 161.8125 855.84375 C 162.4106 853.40894 162.33209 852.73948 161.375 852.34375 C 160.77314 852.0949 159.85978 852.05544 159.71875 852.28125 z M 211.28125 852.3125 C 211.48453 852.3804 211.61199 852.57853 211.65625 852.875 C 211.83991 854.10497 210.99037 855.1144 209.5625 855.40625 C 208.77226 855.56776 208.49606 855.86768 208.5 856.21875 C 208.60866 855.45125 208.58036 854.66913 208.875 854.09375 C 209.50328 852.86683 210.6714 852.10879 211.28125 852.3125 z M 171.46875 852.34375 L 171.4375 853.53125 C 171.42023 854.18617 171.26552 855.34727 171.09375 856.125 C 170.92199 856.90272 170.7808 857.90317 170.78125 858.3125 C 170.78272 859.46623 171.44629 860.66808 172.34375 861.125 C 172.59194 861.25134 172.88605 861.339 172.96875 861.3125 C 173.05226 861.28574 173.16295 860.35893 173.21875 859.25 C 173.28761 857.88108 173.42133 856.77083 173.6875 855.71875 C 174.17499 853.79201 174.18359 853.28477 173.71875 852.75 C 173.39498 852.37757 173.2553 852.34575 172.40625 852.34375 L 171.46875 852.34375 z M 244.4375 853.21875 C 245.38696 852.98293 246.06411 853.9897 245.375 854.625 C 244.82268 855.1342 244.09205 854.98933 243.90625 854.3125 C 243.74314 853.71835 243.91996 853.34729 244.4375 853.21875 z M 219.8125 861.78125 L 219.8125 864.25 L 219.8125 866.6875 L 221.0625 866.75 C 221.74501 866.7775 222.2972 866.7958 222.3125 866.8125 C 222.32779 866.82916 222.53779 866.79855 222.75 866.71875 C 223.18278 866.55593 223.25167 866.04928 222.875 865.90625 C 222.74414 865.85655 222.26309 865.8125 221.78125 865.8125 L 220.90625 865.8125 L 220.78125 865.0625 C 220.72415 864.64959 220.69825 863.88308 220.71875 863.375 C 220.78132 861.8251 220.75848 861.78125 220.25 861.78125 L 219.8125 861.78125 z M 224.53125 861.78125 C 224.23545 861.78125 224.1875 861.86057 224.1875 862.21875 C 224.1875 862.45753 224.27159 862.7087 224.375 862.75 C 224.47841 862.7913 224.5477 862.8065 224.5625 862.8125 C 224.57727 862.81897 224.68986 862.74636 224.8125 862.625 C 225.1359 862.30498 224.9693 861.78125 224.53125 861.78125 z M 228.5 861.78125 C 227.92736 861.40057 226.71875 862.03662 226.71875 862.71875 C 226.71875 862.87598 226.6241 863.04665 226.5 863.09375 C 226.37591 863.14088 226.28125 863.29129 226.28125 863.4375 C 226.28125 863.58372 226.37591 863.73415 226.5 863.78125 C 226.67743 863.8486 226.71875 864.16771 226.71875 865.21875 C 226.71875 866.33496 226.78022 866.56082 227 866.6875 C 227.14478 866.77094 227.3109 866.84175 227.375 866.84375 C 227.5891 866.85207 227.81685 866.05263 227.78125 865.375 C 227.71156 864.04806 227.76878 863.71875 228.09375 863.71875 C 228.29081 863.71875 228.375 863.62594 228.375 863.4375 C 228.375 863.27929 228.25921 863.1145 228.09375 863.0625 C 227.70633 862.94073 227.70727 862.53125 228.09375 862.53125 C 228.48721 862.53125 228.78599 861.97137 228.5 861.78125 z M 237.71875 861.78125 C 237.3201 861.78125 237.25 861.83395 237.25 862.21875 C 237.25 862.51236 237.35384 862.67975 237.53125 862.71875 C 237.97944 862.81727 238.15625 862.66678 238.15625 862.21875 C 238.15625 861.83954 238.11615 861.78125 237.71875 861.78125 z M 235.0625 861.96875 C 234.93141 861.94951 234.78949 862.0654 234.65625 862.3125 C 234.56797 862.47623 234.34683 862.79439 234.1875 863.03125 C 233.89989 863.45876 233.9087 863.48133 234.21875 863.71875 C 234.49124 863.92743 234.53425 864.10027 234.53125 865.1875 C 234.5282 866.48103 234.59194 866.63056 235.09375 866.75 C 235.56139 866.8613 235.55987 866.87715 235.8125 866.78125 C 236.14684 866.65429 236.10919 866.15898 235.75 865.96875 C 235.49766 865.83514 235.46875 865.66677 235.46875 864.875 C 235.46875 864.06495 235.49087 863.88962 235.78125 863.6875 L 236.125 863.4375 L 235.78125 863.1875 C 235.59674 863.04102 235.4291 862.67619 235.375 862.40625 C 235.31992 862.13151 235.19359 861.98799 235.0625 861.96875 z M 182.375 863 C 181.52927 863.04729 181.23194 863.12858 180.78125 863.46875 C 180.06535 864.0091 179.7872 864.48332 179.6875 865.21875 C 179.6312 865.63409 179.70275 865.92736 179.875 866.1875 C 180.14536 866.59582 180.99371 867 181.5625 867 C 181.90557 867 181.912 866.95893 181.875 866.09375 C 181.84284 865.34251 181.88261 865.14425 182.125 864.96875 C 182.85233 864.44213 183.5625 864.99123 183.5625 866.0625 C 183.5625 867.41399 182.35515 868.99145 180.03125 870.65625 C 179.21204 871.24312 178.59375 871.86036 178.59375 872.125 C 178.59375 872.48153 179.13771 872.68655 179.90625 872.59375 C 180.29931 872.54625 181.03487 872.5494 181.53125 872.625 C 183.17346 872.87512 184.49267 872.85621 185.03125 872.53125 C 185.51684 872.23827 185.65875 871.92804 185.71875 871.09375 C 185.74892 870.67445 185.7131 870.64405 185.21875 870.65625 C 184.9292 870.66337 184.19137 870.77382 183.59375 870.875 C 182.99612 870.9762 182.3758 871.0264 182.1875 871 C 181.88785 870.95793 181.93216 870.88115 182.65625 870.34375 C 183.91385 869.4104 184.96577 868.3492 185.28125 867.6875 C 185.44051 867.35345 185.5863 866.62772 185.625 866.03125 C 185.71755 864.60506 185.36631 863.89934 184.21875 863.34375 C 183.54114 863.01563 183.25402 862.9508 182.375 863 z M 196.6875 863 C 195.98532 863.0879 195.35174 863.38783 194.9375 863.875 C 193.73078 865.29415 194.22527 866.77347 195.90625 866.875 L 196.5625 866.9375 L 196.53125 866.09375 C 196.47713 865.19202 196.694 864.78125 197.25 864.78125 C 198.13273 864.78125 198.43009 866.17316 197.8125 867.4375 C 197.43092 868.21869 195.72932 869.95497 194.59375 870.71875 C 193.68097 871.33268 193.066 872.13107 193.3125 872.375 C 193.40263 872.46423 193.95303 872.53925 194.5625 872.53125 C 195.16846 872.52378 196.23431 872.61116 196.9375 872.71875 C 198.22088 872.91509 199.05758 872.88119 199.5625 872.625 C 199.95107 872.42785 200.40565 871.60973 200.40625 871.125 C 200.40697 870.59272 200.0968 870.47505 199.21875 870.6875 C 198.11831 870.9538 196.65625 871.08307 196.65625 870.90625 C 196.65625 870.82156 197.1077 870.39409 197.6875 869.96875 C 199.57433 868.58458 200.29655 867.43586 200.28125 865.75 C 200.27073 864.59104 199.84096 863.85134 198.875 863.375 C 198.17096 863.02782 197.38968 862.9121 196.6875 863 z M 205.03125 863 C 204.29949 863.00166 203.07253 863.51941 202.46875 864.09375 C 201.01435 865.47723 200.42404 868.48076 201.1875 870.5 C 201.55546 871.47321 202.43166 872.44947 203.15625 872.65625 C 204.53193 873.04885 205.9378 872.5965 206.96875 871.4375 C 207.72837 870.58353 208.09375 869.5349 208.09375 868.125 C 208.09375 866.39658 207.50626 865.37609 206.21875 864.84375 C 205.64791 864.60772 205.65445 864.59285 205.96875 864.375 C 206.69495 863.87166 206.08834 862.998 205.03125 863 z M 247.59375 863 C 247.24438 863.04334 246.92957 863.1834 246.65625 863.4375 C 245.7078 864.31923 245.98277 866.2254 247.125 866.71875 C 247.29046 866.78975 247.74752 866.8422 248.15625 866.8125 C 248.76652 866.76819 248.98971 866.67336 249.34375 866.28125 C 249.58087 866.01863 249.75055 865.7208 249.71875 865.625 C 249.62787 865.35083 248.85321 865.29635 248.75 865.5625 C 248.63002 865.87193 247.69531 866.0499 247.40625 865.8125 C 246.8921 865.39024 247.16438 865.2319 248.4375 865.1875 L 249.65625 865.15625 L 249.71875 864.65625 C 249.82008 863.61113 248.64185 862.86999 247.59375 863 z M 189.9375 863.03125 C 189.31557 863.15232 188.64459 863.49834 188.03125 864.03125 C 186.17569 865.64346 185.68167 869.42836 187.0625 871.4375 C 187.49899 872.0726 187.76608 872.2898 188.59375 872.625 C 189.18387 872.864 190.41471 872.78997 191.09375 872.46875 C 192.65921 871.72821 193.506 870.22567 193.5 868.15625 C 193.49515 866.36285 192.77802 865.08756 191.65625 864.84375 C 191.2276 864.75058 191.10558 864.57103 191.375 864.40625 C 191.45729 864.35593 191.6011 864.19097 191.6875 864.03125 C 191.81428 863.79683 191.77148 863.64333 191.46875 863.34375 C 191.11957 862.99822 190.55943 862.91018 189.9375 863.03125 z M 224.4375 863.03125 C 224.24312 863.10507 224.19455 863.42897 224.15625 864.84375 C 224.13045 865.79685 224.12175 866.62245 224.15625 866.65625 C 224.31792 866.81474 224.9186 866.67859 225 866.46875 C 225.0502 866.33926 225.0625 865.63038 225.0625 864.875 C 225.0625 863.42186 224.88871 862.85991 224.4375 863.03125 z M 230.8125 863.03125 C 229.07931 863.22457 228.55667 865.53935 230.03125 866.53125 C 231.01452 867.19266 232.75 866.67793 232.75 865.71875 C 232.75 865.273 232.18174 865.22951 231.8125 865.65625 C 231.48554 866.03415 230.77654 866.05822 230.4375 865.6875 C 230.1023 865.32095 230.19448 865.287 231.53125 865.25 C 232.14509 865.23298 232.71255 865.167 232.78125 865.125 C 232.98032 865.00325 232.90447 864.34998 232.65625 863.875 C 232.33111 863.2528 231.65111 862.93775 230.8125 863.03125 z M 237.40625 863.0625 C 237.31789 863.11655 237.25 863.90263 237.25 864.9375 L 237.25 866.71875 L 237.71875 866.71875 L 238.15625 866.71875 L 238.15625 864.9375 C 238.15625 863.29475 238.152 863.1495 237.875 863.0625 C 237.71028 863.011 237.48975 863.0115 237.40625 863.0625 z M 240.8125 863.09375 C 240.75537 863.15029 240.48564 863.1825 240.21875 863.1875 L 239.75 863.21875 L 239.6875 864.75 C 239.6638 865.60405 239.67695 866.39213 239.71875 866.5 C 239.76058 866.60782 239.98315 866.71875 240.1875 866.71875 C 240.58395 866.71875 240.6575 866.40263 240.75 864.78125 C 240.77712 864.30586 240.89126 864.09028 241.125 863.9375 C 241.40599 863.75387 241.46742 863.75097 241.6875 863.96875 C 241.82575 864.10556 241.91995 864.3574 241.90625 864.53125 C 241.89325 864.7051 241.89725 865.26415 241.90625 865.78125 C 241.9228 866.71573 241.93261 866.7343 242.34375 866.6875 C 242.7511 866.64112 242.7384 866.62774 242.8125 865.40625 C 242.87246 864.41738 242.96108 864.101 243.1875 863.9375 C 243.58131 863.65312 244.01355 863.91533 244.03125 864.4375 C 244.03875 864.65975 244.08065 865.25881 244.09375 865.75 C 244.1175 866.63809 244.1139 866.625 244.5625 866.625 L 245 866.625 L 245.0625 865.4375 C 245.11465 864.04558 245.02879 863.68082 244.625 863.28125 C 244.28775 862.94752 243.44991 862.87821 243 863.15625 C 242.77704 863.29404 242.6181 863.29404 242.3125 863.15625 C 241.88221 862.96223 240.97818 862.9298 240.8125 863.09375 z M 231.25 863.8125 C 231.60708 863.89385 231.91109 864.18401 231.78125 864.3125 C 231.62076 864.47132 230.50245 864.4666 230.40625 864.3125 C 230.24286 864.05089 230.82165 863.7149 231.25 863.8125 z M 247.46875 863.90625 C 247.71915 863.81026 248.07667 863.79557 248.34375 863.96875 C 248.64031 864.16103 248.69537 864.24089 248.53125 864.34375 C 248.28598 864.49747 247.42526 864.51751 247.28125 864.375 C 247.08054 864.1764 247.21835 864.00224 247.46875 863.90625 z M 203.75 865.5625 C 203.82325 865.51768 203.80975 865.61302 203.71875 865.78125 C 203.3545 866.45476 203.64756 867.67976 204.25 868.09375 C 204.50743 868.27069 205.17027 868.20685 205.34375 868 C 205.54527 867.75972 205.40296 867.57329 204.875 867.34375 C 204.43449 867.15223 204.3502 866.75813 204.625 866.25 C 204.85554 865.82373 205.48803 865.89961 206 866.40625 C 206.39038 866.79256 206.4375 866.93931 206.4375 867.75 C 206.4375 869.15964 206.15361 869.94791 205.4375 870.6875 C 204.77282 871.37395 204.17596 871.50379 203.65625 871.125 C 202.79652 870.49839 202.55845 867.72939 203.25 866.375 C 203.4516 865.98016 203.6767 865.6073 203.75 865.5625 z M 189.03125 865.8125 C 189.05455 865.8125 189.0665 866.1815 189.0625 866.625 C 189.05266 867.62182 189.47729 868.1875 190.25 868.1875 C 190.99613 868.1875 191.09087 867.59599 190.375 867.375 C 189.77839 867.19083 189.7296 866.21432 190.3125 866.03125 C 191.26686 865.73151 192.09426 866.85883 191.90625 868.1875 C 191.75425 869.26168 191.41824 870.18827 190.96875 870.71875 C 190.66697 871.07491 190.38688 871.22225 189.9375 871.28125 C 189.38725 871.35349 189.29974 871.30101 188.9375 870.875 C 188.40493 870.24866 188.3024 869.85319 188.3125 868.34375 C 188.3192 867.3386 188.39165 866.94007 188.65625 866.4375 C 188.83943 866.08957 189.00785 865.8125 189.03125 865.8125 z M 209.71875 867.75 L 209.71875 870.1875 L 209.71875 872.65625 L 210.53125 872.6875 C 211.25091 872.7287 212.12096 872.7362 213.21875 872.6875 C 213.5494 872.67284 213.65625 872.5967 213.65625 872.3125 C 213.65625 871.89093 213.11705 871.7428 211.9375 871.84375 C 210.95028 871.92825 210.59665 871.73337 210.65625 871.125 L 210.71875 870.65625 L 212 870.5625 C 213.24344 870.49012 213.28125 870.4869 213.28125 870.125 C 213.28125 869.76306 213.24344 869.7599 212 869.6875 L 210.71875 869.625 L 210.71875 869.15625 L 210.71875 868.71875 L 211.75 868.6875 C 213.26275 868.63311 213.52555 868.55147 213.46875 868.15625 C 213.42318 867.83911 213.33515 867.82145 211.5625 867.78125 L 209.71875 867.75 z M 229.875 867.8125 C 229.57659 867.8125 229.50655 867.89392 229.46875 868.21875 C 229.42579 868.58818 229.44967 868.65625 229.875 868.65625 C 230.30064 868.65625 230.3555 868.58821 230.3125 868.21875 C 230.27473 867.89392 230.17342 867.8125 229.875 867.8125 z M 245.0625 868.9375 C 244.55321 868.9375 244.35479 869.02457 243.9375 869.4375 C 243.47629 869.89395 243.4375 870.02064 243.4375 870.78125 C 243.4375 871.78084 243.57546 872.1431 244.21875 872.53125 C 244.49874 872.70019 244.99273 872.8122 245.375 872.8125 C 245.91895 872.81296 246.10609 872.73322 246.53125 872.3125 C 247.1485 871.70169 247.15683 871.50709 246.625 871.375 C 246.3088 871.29647 246.16827 871.34298 246 871.59375 C 245.63487 872.13793 244.46875 871.97393 244.46875 871.375 C 244.46875 871.2314 244.80122 871.1875 245.75 871.1875 L 247.03125 871.1875 L 247.03125 870.71875 C 247.03125 869.66388 246.22661 868.9375 245.0625 868.9375 z M 214.96875 868.96875 C 214.7915 868.90474 214.60147 868.94013 214.40625 869.0625 C 214.23989 869.16677 214.29889 869.32173 214.65625 869.84375 C 214.90077 870.20095 215.1339 870.56465 215.1875 870.65625 C 215.24109 870.74781 215.01347 871.20579 214.6875 871.65625 C 214.36153 872.10672 214.1355 872.511 214.1875 872.5625 C 214.23955 872.6141 214.49238 872.65625 214.71875 872.65625 C 215.01169 872.65625 215.24884 872.51191 215.5625 872.125 L 216 871.5625 L 216.40625 872.125 C 216.71756 872.52889 216.95926 872.65625 217.28125 872.65625 C 217.8567 872.65625 217.83245 872.39662 217.1875 871.59375 C 216.89875 871.2343 216.657 870.87015 216.65625 870.78125 C 216.65544 870.69235 216.91342 870.29406 217.21875 869.90625 C 217.67205 869.33049 217.7082 869.20454 217.53125 869.09375 C 217.14131 868.8496 216.88369 868.92434 216.40625 869.46875 L 215.9375 870 L 215.53125 869.46875 C 215.32525 869.20149 215.146 869.03276 214.96875 868.96875 z M 224.46875 868.96875 C 223.93807 868.92179 223.39562 869.06752 223.03125 869.40625 C 222.38462 870.00739 222.2128 871.43935 222.71875 872.0625 C 222.81261 872.1781 223.09556 872.37623 223.34375 872.53125 C 224.03417 872.9625 225.11578 872.84668 225.71875 872.25 C 226.17518 871.79833 226.17822 871.76613 225.90625 871.46875 C 225.65838 871.19763 225.65275 871.1875 225.875 871.1875 C 226.24092 871.1875 226.22438 870.1351 225.84375 869.65625 C 225.52654 869.25719 224.99943 869.01571 224.46875 868.96875 z M 241.5625 868.96875 C 240.98831 868.91357 240.36046 869.08146 239.9375 869.5 C 239.53621 869.8971 239.46175 870.05389 239.46875 870.8125 C 239.47719 871.74244 239.78559 872.29346 240.4375 872.625 C 241.20798 873.01683 242.31768 872.73438 242.71875 872.0625 C 243.20576 871.24668 242.56769 870.81403 241.9375 871.53125 C 241.30948 872.246 240.40625 871.82581 240.40625 870.8125 C 240.40625 870.01327 241.29666 869.52677 241.8125 870.03125 C 242.35184 870.55872 242.93995 870.40696 242.78125 869.78125 C 242.66188 869.31058 242.13669 869.02393 241.5625 868.96875 z M 249.1875 868.96875 C 248.55802 869.00869 247.96608 869.26769 247.84375 869.75 C 247.64305 870.54128 248.00831 870.92866 249.28125 871.25 C 250.12702 871.46351 250.20019 871.8147 249.40625 871.875 C 248.97429 871.9078 248.81307 871.85719 248.6875 871.625 C 248.50941 871.29571 248.10775 871.23876 247.84375 871.5 C 247.58385 871.75719 247.93168 872.36219 248.46875 872.59375 C 249.67754 873.11492 251.09375 872.50515 251.09375 871.46875 C 251.09375 871.04132 250.64047 870.68845 249.71875 870.40625 C 249.28878 870.27461 248.9042 870.11785 248.875 870.03125 C 248.77588 869.73701 249.36836 869.72806 249.9375 870.03125 C 250.45244 870.30557 250.53575 870.30576 250.75 870.09375 C 250.94715 869.89865 250.94263 869.81822 250.78125 869.5625 C 250.49329 869.10622 249.81698 868.92881 249.1875 868.96875 z M 232.90625 869 C 232.13328 869 231.94498 869.05867 231.59375 869.40625 C 231.26609 869.73048 231.1767 869.97995 231.125 870.6875 C 231.05061 871.7052 231.22725 872.10826 231.90625 872.53125 C 232.75618 873.06071 234.38709 872.657 234.59375 871.875 C 234.64031 871.69887 234.62065 871.48159 234.53125 871.375 C 234.41251 871.23339 234.42482 871.1875 234.5625 871.1875 C 234.91544 871.1875 234.63087 869.845 234.1875 869.40625 C 233.84851 869.07084 233.67308 869 232.90625 869 z M 236.96875 869 C 236.29556 868.9976 235.6959 869.05045 235.625 869.09375 C 235.47895 869.18304 235.4164 869.82846 235.4375 871.5 L 235.46875 872.65625 L 235.90625 872.65625 L 236.34375 872.65625 L 236.34375 871.59375 C 236.34375 870.36705 236.60361 869.84375 237.1875 869.84375 C 237.70027 869.84375 237.875 870.23573 237.875 871.53125 L 237.875 872.65625 L 238.3125 872.65625 L 238.75 872.65625 L 238.75 871.1875 C 238.75 869.16681 238.64189 869.006 236.96875 869 z M 219.5625 869.03125 L 218.46875 869.125 L 218.4375 871.15625 C 218.41882 873.28189 218.42151 873.49252 218.53125 873.8125 C 218.56831 873.92054 218.75099 873.99495 218.9375 873.96875 C 219.20908 873.93059 219.3148 873.82059 219.375 873.34375 C 219.44874 872.76 219.45923 872.73475 220 872.78125 C 220.63048 872.83548 221.34454 872.51579 221.6875 872.03125 C 222.00457 871.58333 221.97992 870.22971 221.65625 869.6875 C 221.27959 869.05655 220.82662 868.91403 219.5625 869.03125 z M 227.65625 869.03125 L 226.75 869.125 L 226.6875 870.5625 C 226.66161 871.35071 226.69235 872.1283 226.71875 872.3125 C 226.75611 872.5728 226.84491 872.65625 227.1875 872.65625 L 227.625 872.65625 L 227.625 871.46875 C 227.625 870.24813 227.85626 869.733 228.3125 869.90625 C 228.51372 869.98266 229 869.63421 229 869.40625 C 229 869.0692 228.5208 868.93445 227.65625 869.03125 z M 229.78125 869.03125 C 229.45891 869.11467 229.4375 869.17885 229.4375 870.78125 C 229.4375 871.69952 229.47605 872.5079 229.53125 872.5625 C 229.58641 872.617 229.80697 872.65625 230 872.65625 C 230.2917 872.65625 230.3588 872.58953 230.375 872.1875 C 230.41699 871.14758 230.31515 869.16374 230.21875 869.0625 C 230.16286 869.0037 229.96596 868.98345 229.78125 869.03125 z M 220.1875 869.6875 C 220.35444 869.69336 220.52177 869.82463 220.71875 870.03125 C 220.96576 870.29077 221.02635 870.46919 220.96875 870.90625 C 220.9279 871.21645 220.81904 871.56791 220.71875 871.6875 C 220.45129 872.00638 219.71824 871.97075 219.53125 871.625 C 219.2717 871.14508 219.32558 870.29597 219.65625 869.96875 C 219.85114 869.77589 220.02056 869.68164 220.1875 869.6875 z M 233 869.78125 C 233.35658 869.78125 233.65025 870.02505 233.65625 870.3125 C 233.65952 870.4708 232.31845 870.44089 232.21875 870.28125 C 232.09129 870.07717 232.56307 869.78125 233 869.78125 z M 245.53125 869.8125 C 245.70225 869.90307 245.84375 870.09883 245.84375 870.21875 C 245.84375 870.37339 245.67032 870.4375 245.25 870.4375 C 244.51843 870.4375 244.354 870.2238 244.84375 869.90625 C 245.13266 869.71895 245.28896 869.68419 245.53125 869.8125 z M 224.03125 869.875 C 224.31914 869.73186 224.45417 869.72169 224.6875 869.875 C 224.84919 869.98124 224.99915 870.1547 225.03125 870.25 C 225.07064 870.36693 224.8369 870.4375 224.3125 870.4375 C 223.46948 870.4375 223.36292 870.20743 224.03125 869.875 z M 224.5 871.1875 L 225.4375 871.1875 L 225.0625 871.53125 C 224.53277 872.08924 223.5625 871.99589 223.5625 871.375 C 223.5625 871.2371 223.83826 871.1875 224.5 871.1875 z M 233.25 871.1875 C 233.97766 871.19379 234.23546 871.2306 234.03125 871.3125 C 233.86293 871.38002 233.61067 871.55554 233.5 871.6875 C 233.12368 872.13621 232.15625 871.90923 232.15625 871.375 C 232.15625 871.23314 232.4506 871.1805 233.25 871.1875 z M 245.84375 890.21875 L 245.84375 894.03125 L 245.84375 897.8125 L 252.53125 897.8125 L 259.21875 897.8125 L 259.21875 894.03125 L 259.21875 890.21875 L 252.53125 890.21875 L 245.84375 890.21875 z M 249.5 891.3125 C 249.60338 891.04904 249.62974 891.08088 249.96875 891.46875 C 250.16951 891.69845 250.34375 891.95395 250.34375 892.03125 C 250.34375 892.24959 250.12534 892.17577 249.75 891.875 C 249.50484 891.6786 249.4204 891.51546 249.5 891.3125 z M 251.15625 892.71875 C 251.19371 892.77383 251.06288 892.89301 250.78125 893.0625 C 249.83978 893.62907 249.82358 894.81347 250.75 895.5625 C 251.32941 896.03097 251.15071 896.24186 250.53125 895.8125 C 249.48097 895.08453 249.53064 893.40376 250.625 892.84375 C 250.91943 892.69308 251.11879 892.66367 251.15625 892.71875 z M 248.09375 893.28125 C 248.30581 893.15156 249 893.31544 249 893.5 C 249 893.58032 248.7583 893.65625 248.46875 893.65625 C 247.95634 893.65625 247.77262 893.47765 248.09375 893.28125 z M 250.96875 893.65625 C 251.03729 893.68845 251.08318 893.8265 251.03125 894.03125 C 250.97892 894.23759 251.00615 894.52545 251.09375 894.6875 C 251.2697 895.01284 251.09529 895.09234 250.8125 894.8125 C 250.61542 894.61748 250.6072 894.24324 250.75 893.875 C 250.82516 893.68116 250.90021 893.62405 250.96875 893.65625 z M 249.15625 895.125 L 249.5 895.125 L 249.0625 895.59375 C 248.57841 896.09376 248.46137 896.11583 248.34375 895.8125 C 248.2347 895.53128 248.71678 895.125 249.15625 895.125 z M 250.4375 896.46875 C 250.4759 896.46875 250.5 896.61752 250.5 896.78125 C 250.5 896.94967 250.38064 897.0625 250.25 897.0625 C 250.06571 897.0625 250.05899 897.01886 250.1875 896.78125 C 250.27605 896.61752 250.3991 896.46875 250.4375 896.46875 z "
       style="fill:#000000"
       id="path3013"
       d="m 197.3125,788.25 c -0.54722,0 -0.92489,0.2369 -1.03125,0.65625 -0.0571,0.22501 -0.32461,0.50418 -0.71875,0.71875 -0.57674,0.31397 -0.646,0.40358 -0.6875,0.96875 -0.0323,0.43923 -0.16525,0.71865 -0.40625,0.90625 -0.18904,0.14715 -0.3987,0.40644 -0.5,0.59375 -0.18282,0.33804 -0.22602,0.35076 -2.34375,0.25 -2.67523,-0.12729 -4.50547,0.0994 -6.25,0.75 -1.43728,0.53601 -2.63495,1.22142 -2.5,1.4375 0.0493,0.0789 0.46575,0.125 0.90625,0.125 1.12172,0 4.95756,0.52533 7.8125,1.0625 2.25805,0.42486 3.28359,0.66796 6.625,1.5625 0.74456,0.19933 1.90067,0.51481 2.5625,0.6875 2.13859,0.55802 4.77394,1.63189 5.1875,2.125 0.23202,0.27664 0.90625,0.29965 0.90625,0.0312 0,-0.66785 -2.24215,-3.17994 -3.78125,-4.25 -0.80951,-0.56281 -3.01938,-1.61355 -4.21875,-2 -0.18043,-0.0581 -0.28125,-0.25623 -0.28125,-0.59375 0,-0.27088 -0.0872,-0.62657 -0.21875,-0.8125 -0.21721,-0.30697 -0.24393,-0.40024 -0.0312,-0.84375 0.18282,-0.38125 0.21272,-0.60486 0.0937,-1.03125 -0.0838,-0.30044 -0.20245,-0.53125 -0.28125,-0.53125 -0.0788,0 -0.15625,-0.29215 -0.15625,-0.625 0,-0.80284 -0.21704,-1.1875 -0.6875,-1.1875 z m -14.1875,6.5625 c -0.87357,0 -1.81077,0.47358 -2.21875,1.09375 -0.74871,1.13809 -1.17595,2.01773 -1.03125,2.15625 0.29427,0.28171 7.04541,1.53587 12.71875,2.34375 4.66707,0.66459 5.65087,0.86092 7.875,1.59375 2.56681,0.84573 4.23769,1.48482 5.6875,2.25 0.69318,0.36585 1.35368,0.6855 1.46875,0.6875 0.35576,0.007 0.12512,-2.37688 -0.3125,-3.25 -0.64445,-1.28577 -2.57258,-2.22736 -6.84375,-3.4375 -3.05328,-0.86507 -9.29119,-2.32619 -11.5625,-2.6875 -2.84059,-0.45188 -5.16522,-0.75 -5.78125,-0.75 z m -10.65625,3.21875 c -0.31713,0.0172 -0.4425,0.0994 -0.46875,0.28125 -0.0494,0.34203 0.38601,0.57859 2,1.09375 l 0.90625,0.3125 -1.3125,0 c -0.75055,0.005 -1.34955,0.0655 -1.40625,0.15625 -0.18598,0.29778 0.43117,0.73389 1.5,1.0625 1.35013,0.4151 1.45125,0.50909 0.71875,0.625 -0.65229,0.10321 -0.97608,0.37749 -0.84375,0.71875 0.14517,0.37436 0.77883,0.56805 2.21875,0.65625 1.82786,0.11194 1.85129,0.11252 1.46875,0.59375 -0.59363,0.74681 0.24273,1.09275 2.625,1.09375 1.40065,7.7e-4 1.4684,0.0336 1.15625,0.25 -0.67892,0.47057 -0.17186,1.09375 0.875,1.09375 0.40679,0 2.28601,-0.34101 2.90625,-0.53125 0.24617,-0.0755 0.2459,-0.0378 -0.0625,0.375 -0.41252,0.55213 -0.28577,0.89521 0.40625,1.09375 0.41911,0.12024 1.70025,0.0581 2.4375,-0.125 0.31203,-0.0775 0.34375,-0.0519 0.34375,0.4375 0,0.44354 0.0585,0.56844 0.375,0.6875 0.80408,0.30252 2.21374,0.10623 2.8125,-0.40625 0.14528,-0.12435 0.29555,-0.20385 0.34375,-0.15625 0.0481,0.0476 -0.16655,1.48235 -0.5,3.1875 -1.96948,10.0712 -2.15855,10.90229 -2.75,12.5625 -0.83616,2.34715 -1.5,4.67934 -1.5,5.28125 0,0.27567 0.0949,0.73783 0.21875,1.03125 0.36565,0.86599 0.0629,1.93457 -0.75,2.6875 -0.74567,0.69063 -1.0102,1.43092 -0.9375,2.46875 0.0279,0.40547 0.0243,0.75005 0,0.75 -0.10252,-2.1e-4 -1.39471,-1.23108 -2.8125,-2.6875 -2.2819,-2.34406 -2.59274,-2.66136 -4.1875,-3.9375 -1.07424,-0.8596 -1.60536,-1.19025 -1.96875,-1.21875 -0.27319,-0.0214 -0.88773,-0.22328 -1.375,-0.46875 -1.65982,-0.83619 -1.86906,-0.85841 -2.6875,-0.40625 -0.39574,0.21863 -1.02156,0.70585 -1.40625,1.09375 -0.38469,0.38791 -1.02186,0.88635 -1.40625,1.125 -0.38439,0.23865 -0.80743,0.62586 -0.9375,0.84375 -0.21496,0.3601 -2.58682,1.73044 -4.9375,2.84375 -0.39297,0.18611 -0.71875,0.3761 -0.71875,0.4375 0,0.0614 1.42951,0.80035 3.1875,1.65625 1.75799,0.85589 4.02839,2.07017 5.0625,2.6875 1.93535,1.15535 4.73282,2.51571 4.875,2.375 0.0442,-0.0437 -0.0575,-0.32692 -0.25,-0.625 -0.35504,-0.5498 -0.64092,-1.5 -0.4375,-1.5 0.0612,0 0.53607,0.32581 1.03125,0.71875 1.06692,0.84665 2.66227,1.96875 2.8125,1.96875 0.22204,0 0.0879,-0.24666 -0.5625,-1.03125 -0.36944,-0.44567 -0.6613,-0.8391 -0.625,-0.875 0.0363,-0.0359 0.34512,0.1072 0.65625,0.34375 1.71045,1.30043 3.95775,2.47407 4.15625,2.15625 0.10536,-0.16869 -0.58904,-1.05473 -2,-2.5625 -1.33052,-1.42182 -1.52001,-1.74634 -1.875,-2.96875 -0.19521,-0.6722 -0.47691,-1.06853 -1.53125,-2.21875 -2.38028,-2.59673 -3.42746,-3.56765 -3.875,-3.65625 -0.81865,-0.16202 -1.09742,-1.01078 -0.5625,-1.6875 0.16178,-0.20467 0.3105,-0.52903 0.3125,-0.71875 0.004,-0.40847 0.19732,-0.36514 1.5,0.28125 0.4571,0.22681 1.13722,0.4658 1.5,0.5625 1.0552,0.28117 2.08354,1.15056 5.8125,4.875 1.49516,1.49334 2.90204,2.7911 3.125,2.875 0.46142,0.1736 0.74117,0.79436 0.625,1.34375 -0.0433,0.20467 -0.56337,0.86231 -1.15625,1.46875 -1.39094,1.42278 -1.7841,2.34203 -1.34375,3.15625 0.25125,0.46456 0.56918,0.32462 1.0625,-0.46875 0.48368,-0.77788 0.86009,-0.98889 0.71875,-0.40625 -0.27063,1.11548 -0.30078,1.48389 -0.0625,1.84375 0.31673,0.47856 0.80952,0.45341 1.53125,-0.0312 0.46433,-0.31184 0.5306,-0.31414 0.4375,-0.0937 -0.3746,0.88702 -0.42994,2.63275 -0.125,3.5625 0.053,0.16158 0.0438,0.2188 -0.0312,0.125 -0.0699,-0.0873 -0.44022,-0.37189 -0.8125,-0.625 -0.37228,-0.25311 -0.95423,-0.72748 -1.28125,-1.0625 -0.67591,-0.69243 -1.08101,-0.77117 -1.28125,-0.25 -0.31783,0.82724 -0.72381,2.94368 -0.90625,4.65625 -0.39711,3.72768 0.40584,8.49243 2,11.75 0.53767,1.09867 1.38458,2.125 1.75,2.125 0.71227,0 0.77547,-0.85462 0.3125,-3.84375 -0.62126,-4.01099 -0.90746,-7.46875 -0.625,-7.46875 0.0663,0 0.35392,0.69212 0.625,1.53125 0.51027,1.57953 1.13895,3.1561 1.6875,4.1875 0.75528,1.4201 2.54532,3.82799 3.75,5.03125 0.71927,0.71843 1.43767,1.3125 1.59375,1.3125 0.60973,0 0.80777,-0.62956 0.4375,-1.34375 -0.10611,-0.20466 -0.31619,-0.71567 -0.46875,-1.125 -0.15256,-0.40933 -0.40893,-1.05942 -0.59375,-1.46875 -0.57704,-1.27807 -1.39794,-3.68063 -1.71875,-5 -0.37913,-1.55917 -0.66225,-4.41936 -0.53125,-5.46875 l 0.0937,-0.78125 -1.09375,-0.0312 -1.125,0 0.9375,-0.125 c 0.50795,-0.0655 1.24277,-0.29266 1.65625,-0.5 0.71694,-0.35951 1.84375,-1.44132 1.84375,-1.78125 0,-0.0882 -0.1692,-0.76378 -0.375,-1.5 -0.45443,-1.6257 -0.45205,-2.10069 -0.0625,-3 0.48085,-1.11006 1.12586,-1.875 2.40625,-2.875 1.44047,-1.12503 1.88863,-1.64414 2.09375,-2.375 0.22193,-0.79076 0.2011,-1.14458 -0.125,-1.8125 -0.15765,-0.32385 -0.254,-0.5407 -0.1875,-0.5 0.25687,0.1571 1.28443,0.19322 1.53125,0.0625 0.16429,-0.087 0.30845,-0.0656 0.40625,0.0312 0.34007,0.33652 2.60021,-0.35721 3.375,-1.03125 0.48059,-0.41809 0.28648,-3.45682 -0.28125,-4.34375 -0.17478,-0.27304 -0.3438,-0.3399 -0.78125,-0.3125 -0.30445,0.0191 -0.93939,-0.0501 -1.40625,-0.15625 -1.05217,-0.23929 -1.625,-0.10582 -1.625,0.34375 0,0.25248 -0.0471,0.26392 -0.1875,0.125 -0.28278,-0.27983 -0.81233,-0.20444 -1.65625,0.21875 -1.58878,0.79669 -1.90625,1.25788 -1.90625,2.5625 0,0.42889 -0.077,0.66495 -0.21875,0.71875 -0.27615,0.10486 -1.7189,-0.9326 -2.8125,-2.03125 -0.8683,-0.87231 -1.35869,-1.7962 -1.5625,-3.03125 -0.0705,-0.42712 0.14085,-1.69244 0.6875,-4.46875 0.4191,-2.12851 0.82585,-4.21567 0.90625,-4.625 l 0.65625,-3.34375 c 0.28138,-1.43265 0.60575,-3.25352 0.75,-4.03125 0.34936,-1.8836 0.38913,-1.91404 0.875,-1.1875 0.5106,0.76352 1.10725,0.9487 1.5,0.46875 0.1515,-0.18515 0.25,-0.44877 0.25,-0.5625 0,-0.35135 0.25947,-0.22074 0.875,0.4375 0.88574,0.9472 1.65233,1.4768 2.1875,1.5 0.44566,0.0193 0.4922,-0.0217 0.5625,-0.5625 l 0.0625,-0.5625 0.6875,0.5625 c 0.99759,0.83177 2.19692,1.33211 2.65625,1.125 0.20833,-0.0939 0.34375,-0.29544 0.34375,-0.46875 0,-0.39816 0.0546,-0.39441 1.28125,0.21875 0.5791,0.28949 1.31477,0.5759 1.625,0.625 0.52057,0.0823 0.5625,0.0496 0.5625,-0.28125 0,-0.19716 -0.11747,-0.50026 -0.25,-0.6875 -0.35615,-0.50317 -0.12082,-0.57667 0.5625,-0.1875 0.96043,0.54698 2.4836,1.06625 3.21875,1.09375 1.075,0.0402 1.0896,-0.17799 0.0312,-0.9375 l -0.625,-0.46875 0.96875,0.125 c 1.60119,0.20129 2.51523,0.16925 2.8125,-0.125 0.23094,-0.22859 0.22454,-0.27997 0.0312,-0.46875 -0.12113,-0.11832 -0.6709,-0.36885 -1.25,-0.53125 l -1.0625,-0.28125 0.78125,-0.0312 c 1.40137,-0.019 1.20709,-0.50711 -0.40625,-1.03125 -1.40682,-0.45705 -1.58566,-0.59075 -0.71875,-0.59375 0.58514,-0.002 0.71875,-0.0633 0.71875,-0.28125 0,-0.39112 -2.02858,-1.41876 -2.40625,-1.21875 -0.49321,0.26121 -0.73926,0.17103 -1.5,-0.59375 -0.71154,-0.71533 -1.0625,-0.84824 -1.0625,-0.375 0,0.11798 -0.0607,0.21875 -0.125,0.21875 -0.31081,0 -1.3516,-0.90319 -1.65625,-1.4375 -0.11932,-0.20925 -0.19167,-0.24278 -0.34375,-0.0937 -0.32479,0.31828 -0.62594,0.23089 -1.34375,-0.46875 -0.61133,-0.59581 -0.72969,-0.65647 -1.0625,-0.53125 -0.42086,0.15834 -1.48616,-0.23412 -1.71875,-0.625 -0.19869,-0.3339 -0.53815,-0.38712 -1,-0.15625 -0.61554,0.30769 -1.64674,0.20586 -1.84375,-0.1875 -0.13011,-0.25972 -0.22237,-0.3027 -0.53125,-0.1875 -0.63675,0.23753 -1.99351,0.43735 -2.4375,0.34375 -0.36862,-0.0778 -0.44335,-0.15357 -0.40625,-0.5625 0.0498,-0.5483 0.13582,-0.56718 -1.5,0.0312 -1.29085,0.47222 -1.96875,0.51679 -1.96875,0.0937 0,-0.26539 -0.23398,-0.29005 -1.09375,-0.0625 -0.66825,0.17686 -1.55552,0.0828 -1.40625,-0.15625 0.16597,-0.2657 -0.20094,-0.28749 -0.84375,-0.0625 -1.05311,0.36862 -1.77368,0.47473 -1.875,0.3125 -0.0502,-0.0804 0.002,-0.2214 0.0937,-0.3125 0.31738,-0.31409 0.14965,-0.36195 -0.75,-0.28125 -0.75377,0.0676 -0.90625,0.0385 -0.90625,-0.15625 0,-0.12824 0.23366,-0.38747 0.5,-0.59375 0.26635,-0.20627 0.4246,-0.41975 0.375,-0.46875 -0.0496,-0.049 -0.66185,-0.008 -1.375,0.0937 -0.97875,0.14005 -1.3379,0.12948 -1.46875,0 -0.13084,-0.12948 -0.0856,-0.20652 0.21875,-0.34375 0.59268,-0.26722 0.27123,-0.38705 -1.15625,-0.40625 -1.375,-0.0186 -2.03125,-0.18502 -2.03125,-0.53125 0,-0.18927 -0.2768,-0.24911 -1.625,-0.25 -0.88934,-6.2e-4 -2.05601,-0.0611 -2.59375,-0.15625 -0.78051,-0.13815 -1.30787,-0.20467 -1.625,-0.1875 z m 45.65625,32.5 c -0.45929,-0.25518 -0.88197,-0.12392 -1.6875,0.15625 -0.7062,0.2456 -1.0869,0.29895 -1.84375,0.21875 -0.89637,-0.095 -0.95547,-0.0687 -1.3125,0.3125 -0.22952,0.24506 -0.59832,1.10671 -0.96875,2.21875 -1.15149,3.45683 -1.51815,3.96611 -3.09375,4.40625 -0.93863,0.26219 -1.14954,0.37996 -2.25,1.4375 -1.2564,1.2074 -1.23777,1.20977 -5.09375,3 -2.10369,0.9767 -2.26026,0.98517 -3.5625,0.59375 -0.82175,-0.24698 -1.28146,-0.29595 -1.875,-0.21875 -0.94444,0.12288 -3.43318,0.81496 -3.625,1 -0.0835,0.0806 -0.008,0.46228 0.15625,1 0.16705,0.546 0.237,1.13478 0.1875,1.5 -0.0598,0.44119 -0.04,0.59365 0.125,0.65625 0.50497,0.19176 2.23683,0.0745 3.90625,-0.28125 2.99509,-0.63828 3.55905,-0.82368 4.59375,-1.4375 0.84406,-0.50073 3.59306,-1.55773 4.75,-1.84375 0.45846,-0.11334 0.56964,0.19201 0.28125,0.875 -0.5055,1.19724 -1.53605,1.94256 -4.25,3.09375 -0.36461,0.15466 -0.65625,0.349 -0.65625,0.4375 0,0.21657 0.79869,0.0668 2.46875,-0.46875 1.65707,-0.53138 3.57078,-1.47303 5.21875,-2.5625 2.88071,-1.90442 3.7386,-2.79535 5.28125,-5.5 0.50324,-0.88231 0.96085,-1.6444 1.03125,-1.6875 0.0704,-0.0431 0.51816,0.2933 0.96875,0.75 0.91102,0.92339 1.57671,1.28125 2.46875,1.28125 0.64032,0 0.94961,-0.23077 0.5,-0.375 -2.64309,-0.84793 -3.66299,-2.05939 -3.21875,-3.78125 0.0974,-0.37762 0.26145,-0.95378 0.34375,-1.28125 0.42946,-1.70836 0.79692,-2.6072 1.03125,-2.5625 0.13179,0.0251 0.53364,0.44003 0.90625,0.9375 1.86975,2.49637 2.40535,3.28216 2.40625,3.53125 5.2e-4,0.14977 -0.16281,0.6939 -0.375,1.21875 -0.21221,0.52485 -0.33655,1.0364 -0.28125,1.125 0.0553,0.0886 0.61745,0.40227 1.25,0.6875 1.28431,0.5791 2.5625,1.3681 2.5625,1.5625 0,0.0701 -0.59609,0.47322 -1.3125,0.90625 C 221.68534,842.32659 221,842.90234 221,843.25 c 0,0.13037 0.28996,0.44733 0.625,0.6875 1.77287,1.27086 7.01702,2.62555 9.625,2.5 1.38796,-0.0668 1.28637,-0.34192 -0.46875,-1.25 -2.83431,-1.46645 -2.67132,-1.52204 0.84375,-0.34375 4.56041,1.52871 8.38662,2.27168 7.21875,1.40625 -0.53179,-0.39407 -3.19356,-1.42589 -4.6875,-1.8125 -3.60307,-0.93241 -4.77136,-1.47716 -6.21875,-2.96875 -0.59102,-0.60906 -1.51803,-1.31964 -2.34375,-1.8125 -1.46611,-0.87511 -2.74857,-1.78183 -3.21875,-2.28125 -0.24062,-0.25557 -0.28825,-0.4506 -0.21875,-1.03125 0.0903,-0.75477 -0.10908,-1.2647 -0.875,-2.09375 -0.18994,-0.2056 -0.75363,-0.90971 -1.25,-1.5625 -0.95812,-1.26003 -1.44696,-1.90107 -1.90625,-2.15625 z M 188.5,832.125 c 0.13479,-0.13738 1.96875,1.52131 1.96875,1.78125 0,0.093 -0.49818,0.44668 -1.125,0.78125 -1.29285,0.69008 -1.40625,0.73551 -1.40625,0.34375 0,-0.48251 0.4376,-2.77894 0.5625,-2.90625 z m -27.1875,0.3125 c -0.18985,-0.18787 -0.78502,0.0905 -2.625,1.1875 -0.90983,0.54247 -2.7325,1.50495 -4.0625,2.15625 -2.95624,1.44766 -4.15625,2.15812 -4.15625,2.4375 0,0.3085 0.36528,0.25886 1.71875,-0.21875 0.66183,-0.23355 1.36579,-0.47275 1.53125,-0.53125 0.63016,-0.22263 -0.6374,0.68644 -1.78125,1.28125 -0.6387,0.33214 -1.41721,0.85721 -1.71875,1.1875 -0.49908,0.54671 -0.53795,0.67397 -0.46875,1.28125 0.043,0.37771 0.21009,0.77431 0.375,0.9375 0.28804,0.28504 0.2888,0.31262 1.3125,-0.15625 0.56928,-0.26075 1.38655,-0.69718 1.78125,-0.9375 1.15223,-0.70158 1.29319,-0.60541 1.84375,1.21875 0.25944,0.85959 0.62212,1.94521 0.8125,2.375 0.19038,0.4298 0.4236,0.78125 0.5,0.78125 0.0764,0 0.23407,-0.21196 0.375,-0.46875 0.14093,-0.25678 0.39275,-0.64042 0.5625,-0.84375 l 0.3125,-0.375 0.8125,0.4375 c 1.76776,0.97467 3.91417,1.3535 4.4375,0.78125 0.30072,-0.32882 0.36457,-0.2307 -0.71875,-1.53125 -0.58369,-0.70103 -0.60192,-0.6875 -1.5,-0.6875 l -0.90625,0 -1.3125,-1.3125 c -0.71421,-0.71632 -1.6725,-1.74912 -2.125,-2.28125 -1.37552,-1.61757 -1.30294,-1.4355 -0.6875,-1.9375 0.29749,-0.24266 1.21891,-1.01417 2.03125,-1.71875 0.81234,-0.70457 1.98265,-1.6383 2.625,-2.09375 0.643,-0.4559 1.10175,-0.89895 1.03125,-0.96875 z m 0.0312,1.03125 -0.53125,0.46875 c -0.27837,0.26254 -1.35768,1.19738 -2.40625,2.0625 -1.64829,1.35991 -1.87935,1.60042 -1.78125,1.875 0.16316,0.45664 1.14197,0.89565 2.1875,0.96875 0.5583,0.039 1.06132,0.16833 1.3125,0.34375 0.22332,0.15597 1.07735,1.28319 1.90625,2.5 2.11071,3.09845 2.74469,3.5672 5.96875,4.46875 1.97105,0.55118 4.30328,1.47087 4.1875,1.65625 -0.046,0.0737 -0.731,0.4973 -1.53125,0.90625 -0.80025,0.40895 -1.30057,0.678 -1.09375,0.625 0.3696,-0.0947 0.59802,-0.15571 2.90625,-1.0625 1.32584,-0.52085 2.19429,-0.68753 4.65625,-0.90625 1.35979,-0.1208 2.21159,-0.31403 3.65625,-0.78125 l 1.875,-0.59375 0.1875,-0.6875 c 0.11371,-0.38145 0.174,-0.7574 0.125,-0.8125 -0.049,-0.0551 -0.52476,-0.20739 -1.0625,-0.34375 -1.51661,-0.3846 -3.17367,-1.07032 -4.1875,-1.71875 -0.50803,-0.32493 -1.8654,-1.14544 -3,-1.8125 -1.1346,-0.66705 -2.38148,-1.43973 -2.78125,-1.71875 -0.78228,-0.54599 -1.2255,-0.56495 -1.25,-0.0937 -0.008,0.16221 -0.0188,0.3556 -0.0312,0.4375 -0.0124,0.0819 -0.24253,-0.2588 -0.5,-0.75 -0.59601,-1.137 -0.57502,-1.13459 -2,-1.9375 -1.44166,-0.81233 -1.65552,-0.83357 -1.53125,-0.21875 0.13702,0.67799 -0.12556,0.53197 -0.625,-0.34375 -0.55988,-0.98171 -0.70531,-1.07998 -1.875,-1.5 -0.5215,-0.18727 -1.36745,-0.49981 -1.875,-0.6875 l -0.90625,-0.34375 z m 34.125,1.25 c 0.009,-0.009 0.0892,0.0335 0.21875,0.15625 0.14914,0.14131 0.2271,0.30465 0.1875,0.34375 -0.0396,0.0392 -0.14047,-0.0695 -0.25,-0.25 -0.0951,-0.15676 -0.16565,-0.2407 -0.15625,-0.25 z m -4.125,1.625 c 0.0414,0 -0.022,0.096 -0.125,0.21875 -0.10299,0.1228 -0.2086,0.21875 -0.25,0.21875 -0.0414,0 0.022,-0.096 0.125,-0.21875 0.10299,-0.1228 0.2086,-0.21875 0.25,-0.21875 z m 4.375,0.15625 c 0.0414,0 -0.022,0.096 -0.125,0.21875 -0.10298,0.1228 -0.2086,0.21875 -0.25,0.21875 -0.0414,0 -0.009,-0.096 0.0937,-0.21875 0.10299,-0.1228 0.23985,-0.21875 0.28125,-0.21875 z m -5.125,0.4375 c 0.0414,0 -0.022,0.096 -0.125,0.21875 -0.10298,0.1228 -0.2086,0.21875 -0.25,0.21875 -0.0414,0 0.022,-0.096 0.125,-0.21875 0.10299,-0.1228 0.2086,-0.21875 0.25,-0.21875 z m 4.5,0.3125 c 0.0414,0 0.009,0.096 -0.0937,0.21875 -0.10299,0.1228 -0.23985,0.21875 -0.28125,0.21875 -0.0414,0 0.022,-0.096 0.125,-0.21875 0.10299,-0.1228 0.2086,-0.21875 0.25,-0.21875 z m -7.1875,2.875 -0.21875,0.53125 c -0.3094,0.65202 -0.375,0.69421 -0.375,0.40625 0,-0.12737 0.14792,-0.36924 0.3125,-0.5625 l 0.28125,-0.375 z m 52.75,4.1875 -0.125,1.40625 c -0.13543,1.76715 -0.63815,5.61942 -1.03125,7.875 -0.58362,3.34875 -0.6235,3.67518 -0.5625,4.9375 0.0711,1.47234 0.29476,1.89699 1.25,2.375 0.58221,0.29134 1.747,0.41476 1.75,0.1875 0.0299,-2.52613 0.1113,-4.628 0.1875,-4.75 0.0644,-0.1031 0.34287,-0.10775 0.8125,-0.0312 1.18557,0.193 2.0398,0.15399 3.21875,-0.15625 1.25377,-0.32993 2.12144,-0.37391 3.28125,-0.15625 0.43364,0.0814 0.8631,0.108 0.9375,0.0625 0.14458,-0.0884 -0.40409,-0.87997 -1.15625,-1.6875 -0.25305,-0.27169 -0.89191,-0.71562 -1.4375,-1 -1.11462,-0.58096 -1.71217,-1.15211 -2.3125,-2.1875 l -0.40625,-0.71875 1.25,0 c 0.69037,-0.005 1.56979,-0.0601 1.96875,-0.125 0.39896,-0.0649 0.99344,-0.0577 1.3125,0 1.02288,0.1851 1.06117,-0.0691 0.15625,-0.90625 -1.12822,-1.04369 -1.34761,-1.18867 -2.5625,-1.4375 -0.84371,-0.1728 -1.36125,-0.39442 -2.4375,-1.09375 -0.74938,-0.48693 -1.428,-0.875 -1.5,-0.875 -0.072,0 -0.24388,-0.27879 -0.40625,-0.59375 -0.36338,-0.70486 -0.95228,-1.1061 -1.65625,-1.125 l -0.53125,0 z m -68.21875,0.3125 c 0.0649,-0.0623 2.14365,2.1902 2.21875,2.40625 0.0244,0.0703 -0.20544,0.18475 -0.5,0.21875 -0.41833,0.0483 -0.56587,-0.0115 -0.71875,-0.25 -0.28503,-0.44462 -1.0715,-2.3063 -1,-2.375 z m 14.46875,1.78125 c 0.0287,-0.0254 0.19267,0.16082 0.375,0.4375 0.18235,0.27669 0.27985,0.5 0.21875,0.5 -0.1256,0 -0.67445,-0.8662 -0.59375,-0.9375 z m -9.09375,2.15625 -0.5,0.0625 -0.0312,1.25 c -0.0555,1.86191 -0.0957,1.9375 -0.78125,1.9375 -1.08757,0 -1.97722,0.94592 -1.53125,1.625 0.11961,0.18208 0.2806,0.20203 1,0.0312 0.46213,-0.10971 0.86515,-0.1656 0.90625,-0.125 0.0411,0.0406 -0.12666,1.06793 -0.375,2.28125 -0.50652,2.47479 -0.56105,3.53286 -0.21875,4.34375 0.26374,0.62479 0.89394,1.34672 1.34375,1.53125 0.51505,0.2113 0.5992,0.0928 0.625,-0.96875 0.0137,-0.56639 0.0482,-1.54225 0.0937,-2.15625 0.0948,-1.28033 0.77785,-4.74859 0.96875,-4.9375 0.0703,-0.0696 0.42168,-0.20948 0.78125,-0.3125 0.81449,-0.23336 1.30116,-0.80367 1.15625,-1.375 -0.0869,-0.34277 -0.18492,-0.3817 -0.53125,-0.3125 -0.22354,0.0446 -0.51148,0.10085 -0.65625,0.15625 -0.23163,0.0887 -0.25,0.0223 -0.25,-0.71875 0,-0.46309 -0.0967,-1.04762 -0.21875,-1.28125 -0.30786,-0.58912 -1.17054,-1.08945 -1.78125,-1.03125 z m 67.46875,0.0312 c 0.15033,0.0191 0.25,0.12468 0.25,0.3125 0,0.12536 0.10936,0.25 0.25,0.25 0.15592,0 0.2121,0.0444 0.125,0.125 -0.29431,0.27215 -0.76956,0.2872 -1.09375,0.0625 -0.32946,-0.22836 -0.31969,-0.22487 -0.0312,-0.53125 0.15794,-0.16778 0.34967,-0.23784 0.5,-0.21875 z m -84.1875,0.53125 c -0.28961,0.0148 -0.57531,0.12325 -0.8125,0.34375 -0.49003,0.45527 -0.48587,1.48686 0,1.71875 0.78656,0.37539 2.13192,0.12551 2.3125,-0.4375 0.28796,-0.89785 -0.63117,-1.66952 -1.5,-1.625 z m 11.875,0 c -0.38507,0.005 -0.7518,0.13332 -0.96875,0.40625 -0.4222,0.5312 -0.43391,1.32425 0,1.625 0.42606,0.29569 1.36508,0.29292 1.9375,0 0.58827,-0.30102 0.64357,-1.11217 0.0937,-1.65625 -0.26931,-0.26652 -0.67743,-0.38009 -1.0625,-0.375 z m 22.84375,0.9375 -0.53125,0.0625 -0.0312,1.78125 c -0.0368,1.28898 -0.17148,2.26473 -0.46875,3.5 -0.22656,0.94146 -0.4567,2.34728 -0.5,3.125 -0.0896,1.60784 0.0804,1.9721 1.03125,2.3125 0.66391,0.2377 1.98915,0.25846 2.21875,0.0312 0.1189,-0.11761 0.15625,-0.74857 0.15625,-1.84375 0,-1.78852 0.10594,-2.15028 0.9375,-3.84375 0.66909,-1.36263 1.43327,-2.1875 2.0625,-2.1875 0.66085,0 0.72408,0.41472 0.34375,2.28125 -0.68488,3.36115 -0.69238,4.44017 0.0312,5.15625 0.34496,0.34136 0.5216,0.3816 1.8125,0.4375 0.78796,0.0341 1.4375,0.0272 1.4375,-0.0312 0,-0.0585 -0.12844,-0.28269 -0.28125,-0.5 -0.68167,-0.9694 -0.683,-1.38883 -0.0937,-4.65625 0.31544,-1.74896 0.28504,-3.07157 -0.0625,-3.71875 -0.43178,-0.80406 -1.09686,-1.1885 -2.09375,-1.1875 -1.26321,0.001 -1.88278,0.21867 -2.78125,1.03125 l -0.8125,0.75 -0.0625,-0.59375 c -0.15462,-1.14073 -1.21154,-2.00265 -2.3125,-1.90625 z m 20.1875,0.25 c -0.0745,0.0737 -0.23266,1.35222 -0.34375,2.8125 -0.28509,3.74771 -0.46156,5.26173 -0.96875,8.15625 -0.5053,2.88376 -0.53033,3.83964 -0.1875,4.6875 0.24397,0.60339 0.84668,1.10253 1.65625,1.34375 0.97453,0.29037 1.09375,0.10424 1.09375,-1.78125 0,-1.41127 0.41356,-5.41535 0.6875,-6.71875 0.57641,-2.74262 1.6377,-4.80103 2.6875,-5.1875 0.42983,-0.15823 1.46235,0.0703 1.6875,0.375 0.43582,0.58979 0.0913,2.25949 -0.71875,3.4375 -0.53109,0.77234 -1.45858,1.56856 -2.5,2.15625 -0.87767,0.4953 -0.86996,0.66092 0.0625,0.875 0.98974,0.22724 2.3361,0.156 3.03125,-0.15625 2.03719,-0.91508 3.75921,-4.20713 3.34375,-6.375 -0.19228,-1.0033 -0.46961,-1.52432 -1.125,-2.09375 -1.37503,-1.19469 -3.70009,-0.94096 -5.28125,0.5625 L 218.5,853 l -0.0937,-0.59375 c -0.06,-0.37131 -0.28736,-0.77455 -0.59375,-1.09375 -0.5862,-0.61072 -1.62122,-1.18928 -1.8125,-1 z m -64.65625,0.34375 c -0.50332,-0.0466 -1.05014,0.13264 -1.5625,0.59375 l -0.34375,0.3125 0.5,1.0625 c 0.72243,1.55208 1.09462,2.83006 1.5625,5.59375 0.22868,1.35078 0.46645,2.55392 0.53125,2.65625 0.0727,0.11476 0.45101,0.1875 1,0.1875 l 0.90625,0 0.59375,-0.78125 c 1.73769,-2.1754 3.64226,-5.24425 4.0625,-6.5625 0.22903,-0.71844 -0.0933,-1.4912 -0.78125,-1.90625 -0.91342,-0.55109 -1.06013,-0.45401 -1.53125,1 -0.54413,1.67938 -2.3578,5.11008 -2.5,4.71875 -0.0548,-0.15067 -0.16075,-0.81382 -0.21875,-1.46875 -0.13625,-1.53813 -0.65206,-3.85605 -1,-4.53125 -0.27522,-0.53408 -0.71543,-0.82837 -1.21875,-0.875 z m 59.125,0.0312 c -0.54999,0.0716 -1.10375,0.24015 -1.65625,0.5 -1.30379,0.61319 -2.27657,1.56204 -2.875,2.8125 -0.45396,0.94853 -0.504,1.12379 -0.5,2.5 0.003,1.19712 0.0887,1.61754 0.34375,2.15625 0.5178,1.09353 1.61201,2.06371 2.75,2.40625 0.87339,0.26291 1.8707,0.15321 2.8125,-0.3125 1.15196,-0.56964 2.34775,-1.8092 2.28125,-2.375 -0.0714,-0.60772 -0.65177,-0.59478 -1.3125,0.0312 -0.66544,0.63048 -1.29506,0.98306 -2.0625,1.09375 -1.03648,0.1495 -1.83021,-0.54965 -2.03125,-1.8125 -0.0522,-0.32755 0.16683,-0.82659 0.21875,-1.28125 0.0753,0.19407 0.32218,0.22125 1.375,0.15625 3.04306,-0.18787 5.06218,-2.20466 4.28125,-4.25 -0.47062,-1.23259 -1.97502,-1.83995 -3.625,-1.625 z m 24.34375,0.0312 c -0.1482,0.0563 -0.22485,0.50535 -0.28125,1.65625 -0.1332,2.71649 -1.1705,5.18631 -2.53125,6.09375 -0.65205,0.43479 -1.13409,0.45487 -1.59375,0 -0.31994,-0.3166 -0.376,-0.52972 -0.375,-1.40625 0.001,-0.74652 0.11464,-1.19672 0.375,-1.75 0.43581,-0.92612 1.82197,-2.44868 2.71875,-2.96875 0.36871,-0.21382 0.6875,-0.4316 0.6875,-0.5 0,-0.66449 -1.94458,-0.60229 -3.4375,0.125 -1.77198,0.86324 -2.67645,1.96208 -3.25,3.875 -0.28296,0.94377 -0.30601,2.28028 -0.0625,3 0.35633,1.05315 1.34189,1.94383 2.4375,2.21875 1.16326,0.2919 2.76198,-0.18583 3.8125,-1.125 l 0.59375,-0.53125 0.28125,0.5625 c 0.31993,0.64325 0.92544,1.01589 1.8125,1.15625 l 0.625,0.0937 -0.0625,-1.90625 c -0.062,-1.61582 -0.0177,-2.25188 0.3125,-4.125 0.50535,-2.86694 0.49741,-3.22699 -0.0312,-3.8125 -0.41687,-0.46169 -1.55758,-0.83612 -2.03125,-0.65625 z m -67.5,0.8125 c -0.74594,-0.0827 -1.5362,0.0484 -2.25,0.40625 -1.07907,0.54096 -1.5,1.14355 -1.5,2.21875 0,1.08318 0.30688,1.60468 1.71875,2.65625 1.61581,1.20347 2.0995,2.05074 1.40625,2.53125 -0.40412,0.2801 -1.52729,0.2968 -1.75,0.0312 -0.0882,-0.10516 -0.19345,-0.60538 -0.21875,-1.09375 l -0.0312,-0.875 -0.59375,0.0312 c -0.46183,0.0153 -0.70383,0.10612 -1.03125,0.46875 -0.23166,0.25656 -0.40625,0.63228 -0.40625,0.84375 0,0.90398 0.90392,2.01478 1.90625,2.3125 0.23289,0.0692 0.96002,0.118 1.625,0.125 2.17871,0.0231 3.29752,-0.91965 3.1875,-2.6875 -0.0679,-1.09039 -0.46322,-1.63866 -2.03125,-2.6875 -0.65835,-0.44037 -1.30349,-0.96601 -1.4375,-1.1875 -0.2873,-0.47482 -0.18619,-1.09804 0.21875,-1.3125 0.49152,-0.26031 1.29468,-0.16336 1.625,0.1875 0.36873,0.39171 0.39645,0.38484 0.0937,0.8125 -0.39049,0.55168 -0.20094,0.74903 0.625,0.625 0.89808,-0.13488 1.40625,-0.65549 1.40625,-1.4375 0,-0.43114 -0.11077,-0.6391 -0.59375,-1.09375 -0.52612,-0.49527 -1.22281,-0.79233 -1.96875,-0.875 z m -7.59375,0.75 c -0.0547,0.0877 -0.13005,0.68383 -0.15625,1.3125 -0.0262,0.62868 -0.19523,1.80634 -0.375,2.625 -0.21543,0.98117 -0.302,1.76151 -0.25,2.28125 0.0895,0.89442 0.65454,1.91235 1.28125,2.375 0.22848,0.16867 0.54359,0.3095 0.71875,0.3125 0.30357,0.005 0.32565,-0.0658 0.40625,-1.875 0.057,-1.27816 0.21019,-2.41615 0.46875,-3.46875 0.5981,-2.43481 0.51959,-3.10427 -0.4375,-3.5 -0.60186,-0.24885 -1.51522,-0.28831 -1.65625,-0.0625 z m 51.5625,0.0312 c 0.20328,0.0679 0.33074,0.26603 0.375,0.5625 0.18366,1.22997 -0.66588,2.2394 -2.09375,2.53125 -0.79024,0.16151 -1.06644,0.46143 -1.0625,0.8125 0.10866,-0.7675 0.0804,-1.54962 0.375,-2.125 0.62828,-1.22692 1.7964,-1.98496 2.40625,-1.78125 z m -39.8125,0.0312 -0.0312,1.1875 c -0.0173,0.65492 -0.17198,1.81602 -0.34375,2.59375 -0.17176,0.77772 -0.31295,1.77817 -0.3125,2.1875 0.001,1.15373 0.66504,2.35558 1.5625,2.8125 0.24819,0.12634 0.5423,0.214 0.625,0.1875 0.0835,-0.0268 0.1942,-0.95357 0.25,-2.0625 0.0689,-1.36892 0.20258,-2.47917 0.46875,-3.53125 0.48749,-1.92674 0.49609,-2.43398 0.0312,-2.96875 -0.32377,-0.37243 -0.46345,-0.40425 -1.3125,-0.40625 l -0.9375,0 z m 72.96875,0.875 c 0.94946,-0.23582 1.62661,0.77095 0.9375,1.40625 -0.55232,0.5092 -1.28295,0.36433 -1.46875,-0.3125 -0.16311,-0.59415 0.0137,-0.96521 0.53125,-1.09375 z m -24.625,8.5625 0,2.46875 0,2.4375 1.25,0.0625 c 0.68251,0.0275 1.2347,0.0458 1.25,0.0625 0.0153,0.0167 0.22529,-0.014 0.4375,-0.0937 0.43278,-0.16282 0.50167,-0.66947 0.125,-0.8125 -0.13086,-0.0497 -0.61191,-0.0937 -1.09375,-0.0937 l -0.875,0 -0.125,-0.75 c -0.0571,-0.41291 -0.083,-1.17942 -0.0625,-1.6875 0.0626,-1.5499 0.0397,-1.59375 -0.46875,-1.59375 l -0.4375,0 z m 4.71875,0 c -0.2958,0 -0.34375,0.0793 -0.34375,0.4375 0,0.23878 0.0841,0.48995 0.1875,0.53125 0.10341,0.0413 0.1727,0.0565 0.1875,0.0625 0.0148,0.006 0.12736,-0.0661 0.25,-0.1875 0.3234,-0.32002 0.1568,-0.84375 -0.28125,-0.84375 z m 3.96875,0 c -0.57264,-0.38068 -1.78125,0.25537 -1.78125,0.9375 0,0.15723 -0.0947,0.3279 -0.21875,0.375 -0.12409,0.0471 -0.21875,0.19754 -0.21875,0.34375 0,0.14622 0.0947,0.29665 0.21875,0.34375 0.17743,0.0674 0.21875,0.38646 0.21875,1.4375 0,1.11621 0.0615,1.34207 0.28125,1.46875 0.14478,0.0834 0.3109,0.15425 0.375,0.15625 0.2141,0.008 0.44185,-0.79112 0.40625,-1.46875 -0.0697,-1.32694 -0.0125,-1.65625 0.3125,-1.65625 0.19706,0 0.28125,-0.0928 0.28125,-0.28125 0,-0.15821 -0.11579,-0.323 -0.28125,-0.375 -0.38742,-0.12177 -0.38648,-0.53125 0,-0.53125 0.39346,0 0.69224,-0.55988 0.40625,-0.75 z m 9.21875,0 c -0.39865,0 -0.46875,0.0527 -0.46875,0.4375 0,0.29361 0.10384,0.461 0.28125,0.5 0.44819,0.0985 0.625,-0.052 0.625,-0.5 0,-0.37921 -0.0401,-0.4375 -0.4375,-0.4375 z m -2.65625,0.1875 c -0.13109,-0.0192 -0.27301,0.0966 -0.40625,0.34375 -0.0883,0.16373 -0.30942,0.48189 -0.46875,0.71875 -0.28761,0.42751 -0.2788,0.45008 0.0312,0.6875 0.27249,0.20868 0.3155,0.38152 0.3125,1.46875 -0.003,1.29353 0.0607,1.44306 0.5625,1.5625 0.46764,0.1113 0.46612,0.12715 0.71875,0.0312 0.33434,-0.12696 0.29669,-0.62227 -0.0625,-0.8125 -0.25234,-0.13361 -0.28125,-0.30198 -0.28125,-1.09375 0,-0.81005 0.0221,-0.98538 0.3125,-1.1875 l 0.34375,-0.25 -0.34375,-0.25 c -0.18451,-0.14648 -0.35215,-0.51131 -0.40625,-0.78125 -0.0551,-0.27474 -0.18141,-0.41826 -0.3125,-0.4375 z M 182.375,863 c -0.84573,0.0473 -1.14306,0.12858 -1.59375,0.46875 -0.7159,0.54035 -0.99405,1.01457 -1.09375,1.75 -0.0563,0.41534 0.0153,0.70861 0.1875,0.96875 0.27036,0.40832 1.11871,0.8125 1.6875,0.8125 0.34307,0 0.3495,-0.0411 0.3125,-0.90625 -0.0322,-0.75124 0.008,-0.9495 0.25,-1.125 0.72733,-0.52662 1.4375,0.0225 1.4375,1.09375 0,1.35149 -1.20735,2.92895 -3.53125,4.59375 -0.81921,0.58687 -1.4375,1.20411 -1.4375,1.46875 0,0.35653 0.54396,0.56155 1.3125,0.46875 0.39306,-0.0475 1.12862,-0.0444 1.625,0.0312 1.64221,0.25012 2.96142,0.23121 3.5,-0.0937 0.48559,-0.29298 0.6275,-0.60321 0.6875,-1.4375 0.0302,-0.4193 -0.006,-0.4497 -0.5,-0.4375 -0.28955,0.007 -1.02738,0.11757 -1.625,0.21875 -0.59763,0.1012 -1.21795,0.1514 -1.40625,0.125 -0.29965,-0.0421 -0.25534,-0.11885 0.46875,-0.65625 1.2576,-0.93335 2.30952,-1.99455 2.625,-2.65625 0.15926,-0.33405 0.30505,-1.05978 0.34375,-1.65625 0.0925,-1.42619 -0.25869,-2.13191 -1.40625,-2.6875 C 183.54114,863.01563 183.25402,862.9508 182.375,863 z m 14.3125,0 c -0.70218,0.0879 -1.33576,0.38783 -1.75,0.875 -1.20672,1.41915 -0.71223,2.89847 0.96875,3 l 0.65625,0.0625 -0.0312,-0.84375 c -0.0541,-0.90173 0.16275,-1.3125 0.71875,-1.3125 0.88273,0 1.18009,1.39191 0.5625,2.65625 -0.38158,0.78119 -2.08318,2.51747 -3.21875,3.28125 -0.91278,0.61393 -1.52775,1.41232 -1.28125,1.65625 0.0901,0.0892 0.64053,0.16425 1.25,0.15625 0.60596,-0.007 1.67181,0.0799 2.375,0.1875 1.28338,0.19634 2.12008,0.16244 2.625,-0.0937 0.38857,-0.19715 0.84315,-1.01527 0.84375,-1.5 7.2e-4,-0.53228 -0.30945,-0.64995 -1.1875,-0.4375 -1.10044,0.2663 -2.5625,0.39557 -2.5625,0.21875 0,-0.0847 0.45145,-0.51216 1.03125,-0.9375 1.88683,-1.38417 2.60905,-2.53289 2.59375,-4.21875 -0.0105,-1.15896 -0.44029,-1.89866 -1.40625,-2.375 -0.70404,-0.34718 -1.48532,-0.4629 -2.1875,-0.375 z m 8.34375,0 c -0.73176,0.002 -1.95872,0.51941 -2.5625,1.09375 -1.4544,1.38348 -2.04471,4.38701 -1.28125,6.40625 0.36796,0.97321 1.24416,1.94947 1.96875,2.15625 1.37568,0.3926 2.78155,-0.0598 3.8125,-1.21875 0.75962,-0.85397 1.125,-1.9026 1.125,-3.3125 0,-1.72842 -0.58749,-2.74891 -1.875,-3.28125 -0.57084,-0.23603 -0.5643,-0.2509 -0.25,-0.46875 0.7262,-0.50334 0.11959,-1.377 -0.9375,-1.375 z m 42.5625,0 c -0.34937,0.0433 -0.66418,0.1834 -0.9375,0.4375 -0.94845,0.88173 -0.67348,2.7879 0.46875,3.28125 0.16546,0.071 0.62252,0.12345 1.03125,0.0937 0.61027,-0.0443 0.83346,-0.13914 1.1875,-0.53125 0.23712,-0.26262 0.4068,-0.56045 0.375,-0.65625 -0.0909,-0.27417 -0.86554,-0.32865 -0.96875,-0.0625 -0.11998,0.30943 -1.05469,0.4874 -1.34375,0.25 -0.51415,-0.42226 -0.24187,-0.5806 1.03125,-0.625 l 1.21875,-0.0312 0.0625,-0.5 c 0.10133,-1.04512 -1.0769,-1.78626 -2.125,-1.65625 z m -57.65625,0.0312 c -0.62193,0.12107 -1.29291,0.46709 -1.90625,1 -1.85556,1.61221 -2.34958,5.39711 -0.96875,7.40625 0.43649,0.6351 0.70358,0.8523 1.53125,1.1875 0.59012,0.239 1.82096,0.16497 2.5,-0.15625 1.56546,-0.74054 2.41225,-2.24308 2.40625,-4.3125 -0.005,-1.7934 -0.72198,-3.06869 -1.84375,-3.3125 -0.42865,-0.0932 -0.55067,-0.27272 -0.28125,-0.4375 0.0823,-0.0503 0.2261,-0.21528 0.3125,-0.375 0.12678,-0.23442 0.084,-0.38792 -0.21875,-0.6875 -0.34918,-0.34553 -0.90932,-0.43357 -1.53125,-0.3125 z m 34.5,0 c -0.19438,0.0738 -0.24295,0.39772 -0.28125,1.8125 -0.0258,0.9531 -0.0345,1.7787 0,1.8125 0.16167,0.15849 0.76235,0.0223 0.84375,-0.1875 0.0502,-0.12949 0.0625,-0.83837 0.0625,-1.59375 0,-1.45314 -0.17379,-2.01509 -0.625,-1.84375 z m 6.375,0 c -1.73319,0.19332 -2.25583,2.5081 -0.78125,3.5 0.98327,0.66141 2.71875,0.14668 2.71875,-0.8125 0,-0.44575 -0.56826,-0.48924 -0.9375,-0.0625 -0.32696,0.3779 -1.03596,0.40197 -1.375,0.0312 -0.3352,-0.36655 -0.24302,-0.4005 1.09375,-0.4375 0.61384,-0.017 1.1813,-0.083 1.25,-0.125 0.19907,-0.12175 0.12322,-0.77502 -0.125,-1.25 -0.32514,-0.6222 -1.00514,-0.93725 -1.84375,-0.84375 z m 6.59375,0.0312 c -0.0884,0.054 -0.15625,0.84013 -0.15625,1.875 l 0,1.78125 0.46875,0 0.4375,0 0,-1.78125 c 0,-1.64275 -0.004,-1.788 -0.28125,-1.875 -0.16472,-0.0515 -0.38525,-0.051 -0.46875,0 z m 3.40625,0.0312 c -0.0571,0.0565 -0.32686,0.0888 -0.59375,0.0937 l -0.46875,0.0312 -0.0625,1.53125 c -0.0237,0.85405 -0.0105,1.64213 0.0312,1.75 0.0418,0.10782 0.2644,0.21875 0.46875,0.21875 0.39645,0 0.47,-0.31612 0.5625,-1.9375 0.0271,-0.47539 0.14126,-0.69097 0.375,-0.84375 0.28099,-0.18363 0.34242,-0.18653 0.5625,0.0312 0.13825,0.13681 0.23245,0.38865 0.21875,0.5625 -0.013,0.17385 -0.009,0.7329 0,1.25 0.0165,0.93448 0.0264,0.95305 0.4375,0.90625 0.40735,-0.0464 0.39465,-0.0598 0.46875,-1.28125 0.06,-0.98887 0.14858,-1.30525 0.375,-1.46875 0.39381,-0.28438 0.82605,-0.0222 0.84375,0.5 0.007,0.22225 0.0494,0.82131 0.0625,1.3125 0.0238,0.88809 0.0202,0.875 0.46875,0.875 l 0.4375,0 0.0625,-1.1875 c 0.0522,-1.39192 -0.0337,-1.75668 -0.4375,-2.15625 -0.33725,-0.33373 -1.17509,-0.40304 -1.625,-0.125 -0.22296,0.13779 -0.3819,0.13779 -0.6875,0 -0.43029,-0.19402 -1.33432,-0.22645 -1.5,-0.0625 z m -9.5625,0.71875 c 0.35708,0.0814 0.66109,0.37151 0.53125,0.5 -0.16049,0.15882 -1.2788,0.1541 -1.375,0 -0.16339,-0.26161 0.4154,-0.5976 0.84375,-0.5 z m 16.21875,0.0937 c 0.2504,-0.096 0.60792,-0.11068 0.875,0.0625 0.29656,0.19228 0.35162,0.27214 0.1875,0.375 -0.24527,0.15372 -1.10599,0.17376 -1.25,0.0312 -0.20071,-0.1986 -0.0629,-0.37276 0.1875,-0.46875 z M 203.75,865.5625 c 0.0733,-0.0448 0.0598,0.0505 -0.0312,0.21875 -0.36425,0.67351 -0.0712,1.89851 0.53125,2.3125 0.25743,0.17694 0.92027,0.1131 1.09375,-0.0937 0.20152,-0.24028 0.0592,-0.42671 -0.46875,-0.65625 -0.44051,-0.19152 -0.5248,-0.58562 -0.25,-1.09375 0.23054,-0.42627 0.86303,-0.35039 1.375,0.15625 0.39038,0.38631 0.4375,0.53306 0.4375,1.34375 0,1.40964 -0.28389,2.19791 -1,2.9375 -0.66468,0.68645 -1.26154,0.81629 -1.78125,0.4375 -0.85973,-0.62661 -1.0978,-3.39561 -0.40625,-4.75 0.2016,-0.39484 0.4267,-0.7677 0.5,-0.8125 z m -14.71875,0.25 c 0.0233,0 0.0352,0.369 0.0312,0.8125 -0.01,0.99682 0.41479,1.5625 1.1875,1.5625 0.74613,0 0.84087,-0.59151 0.125,-0.8125 -0.59661,-0.18417 -0.6454,-1.16068 -0.0625,-1.34375 0.95436,-0.29974 1.78176,0.82758 1.59375,2.15625 -0.152,1.07418 -0.48801,2.00077 -0.9375,2.53125 -0.30178,0.35616 -0.58187,0.5035 -1.03125,0.5625 -0.55025,0.0722 -0.63776,0.0198 -1,-0.40625 -0.53257,-0.62634 -0.6351,-1.02181 -0.625,-2.53125 0.007,-1.00515 0.0791,-1.40368 0.34375,-1.90625 0.18318,-0.34793 0.3516,-0.625 0.375,-0.625 z m 20.6875,1.9375 0,2.4375 0,2.46875 0.8125,0.0312 c 0.71966,0.0412 1.58971,0.0487 2.6875,0 0.33065,-0.0147 0.4375,-0.0908 0.4375,-0.375 0,-0.42157 -0.5392,-0.5697 -1.71875,-0.46875 -0.98722,0.0845 -1.34085,-0.11038 -1.28125,-0.71875 l 0.0625,-0.46875 L 212,870.5625 c 1.24344,-0.0724 1.28125,-0.0756 1.28125,-0.4375 0,-0.36194 -0.0378,-0.3651 -1.28125,-0.4375 l -1.28125,-0.0625 0,-0.46875 0,-0.4375 1.03125,-0.0312 c 1.51275,-0.0544 1.77555,-0.13603 1.71875,-0.53125 -0.0456,-0.31714 -0.1336,-0.3348 -1.90625,-0.375 l -1.84375,-0.0312 z m 20.15625,0.0625 c -0.29841,0 -0.36845,0.0814 -0.40625,0.40625 -0.043,0.36943 -0.0191,0.4375 0.40625,0.4375 0.42564,0 0.4805,-0.068 0.4375,-0.4375 -0.0378,-0.32483 -0.13908,-0.40625 -0.4375,-0.40625 z m 15.1875,1.125 c -0.50929,0 -0.70771,0.0871 -1.125,0.5 -0.46121,0.45645 -0.5,0.58314 -0.5,1.34375 0,0.99959 0.13796,1.36185 0.78125,1.75 0.27999,0.16894 0.77398,0.28095 1.15625,0.28125 0.54395,4.6e-4 0.73109,-0.0793 1.15625,-0.5 0.61725,-0.61081 0.62558,-0.80541 0.0937,-0.9375 -0.3162,-0.0785 -0.45673,-0.032 -0.625,0.21875 -0.36513,0.54418 -1.53125,0.38018 -1.53125,-0.21875 0,-0.1436 0.33247,-0.1875 1.28125,-0.1875 l 1.28125,0 0,-0.46875 c 0,-1.05487 -0.80464,-1.78125 -1.96875,-1.78125 z m -30.09375,0.0312 c -0.17725,-0.064 -0.36728,-0.0286 -0.5625,0.0937 -0.16636,0.10427 -0.10736,0.25923 0.25,0.78125 0.24452,0.3572 0.47765,0.7209 0.53125,0.8125 0.0536,0.0916 -0.17403,0.54954 -0.5,1 -0.32597,0.45047 -0.552,0.85475 -0.5,0.90625 0.0521,0.0516 0.30488,0.0937 0.53125,0.0937 0.29294,0 0.53009,-0.14434 0.84375,-0.53125 l 0.4375,-0.5625 0.40625,0.5625 c 0.31131,0.40389 0.55301,0.53125 0.875,0.53125 0.57545,0 0.5512,-0.25963 -0.0937,-1.0625 -0.28875,-0.35945 -0.5305,-0.7236 -0.53125,-0.8125 -8.1e-4,-0.0889 0.25717,-0.48719 0.5625,-0.875 0.4533,-0.57576 0.48945,-0.70171 0.3125,-0.8125 -0.38994,-0.24415 -0.64756,-0.16941 -1.125,0.375 L 215.9375,870 l -0.40625,-0.53125 c -0.206,-0.26726 -0.38525,-0.43599 -0.5625,-0.5 z m 9.5,0 c -0.53068,-0.047 -1.07313,0.0988 -1.4375,0.4375 -0.64663,0.60114 -0.81845,2.0331 -0.3125,2.65625 0.0939,0.1156 0.37681,0.31373 0.625,0.46875 0.69042,0.43125 1.77203,0.31543 2.375,-0.28125 0.45643,-0.45167 0.45947,-0.48387 0.1875,-0.78125 -0.24787,-0.27112 -0.2535,-0.28125 -0.0312,-0.28125 0.36592,0 0.34938,-1.0524 -0.0312,-1.53125 -0.31721,-0.39906 -0.84432,-0.64054 -1.375,-0.6875 z m 17.09375,0 c -0.57419,-0.0552 -1.20204,0.11271 -1.625,0.53125 -0.40129,0.3971 -0.47575,0.55389 -0.46875,1.3125 0.008,0.92994 0.31684,1.48096 0.96875,1.8125 0.77048,0.39183 1.88018,0.10938 2.28125,-0.5625 0.48701,-0.81582 -0.15106,-1.24847 -0.78125,-0.53125 -0.62802,0.71475 -1.53125,0.29456 -1.53125,-0.71875 0,-0.79923 0.89041,-1.28573 1.40625,-0.78125 0.53934,0.52747 1.12745,0.37571 0.96875,-0.25 -0.11937,-0.47067 -0.64456,-0.75732 -1.21875,-0.8125 z m 7.625,0 c -0.62948,0.0399 -1.22142,0.29894 -1.34375,0.78125 -0.2007,0.79128 0.16456,1.17866 1.4375,1.5 0.84577,0.21351 0.91894,0.5647 0.125,0.625 -0.43196,0.0328 -0.59318,-0.0178 -0.71875,-0.25 -0.17809,-0.32929 -0.57975,-0.38624 -0.84375,-0.125 -0.2599,0.25719 0.0879,0.86219 0.625,1.09375 1.20879,0.52117 2.625,-0.0886 2.625,-1.125 0,-0.42743 -0.45328,-0.7803 -1.375,-1.0625 -0.42997,-0.13164 -0.81455,-0.2884 -0.84375,-0.375 -0.0991,-0.29424 0.49336,-0.30319 1.0625,0 0.51494,0.27432 0.59825,0.27451 0.8125,0.0625 0.19715,-0.1951 0.19263,-0.27553 0.0312,-0.53125 -0.28796,-0.45628 -0.96427,-0.63369 -1.59375,-0.59375 z M 232.90625,869 c -0.77297,0 -0.96127,0.0587 -1.3125,0.40625 -0.32766,0.32423 -0.41705,0.5737 -0.46875,1.28125 -0.0744,1.0177 0.10225,1.42076 0.78125,1.84375 0.84993,0.52946 2.48084,0.12575 2.6875,-0.65625 0.0466,-0.17613 0.0269,-0.39341 -0.0625,-0.5 -0.11874,-0.14161 -0.10643,-0.1875 0.0312,-0.1875 0.35294,0 0.0684,-1.3425 -0.375,-1.78125 C 233.84851,869.07084 233.67308,869 232.90625,869 z m 4.0625,0 c -0.67319,-0.002 -1.27285,0.0504 -1.34375,0.0937 -0.14605,0.0893 -0.2086,0.73471 -0.1875,2.40625 l 0.0312,1.15625 0.4375,0 0.4375,0 0,-1.0625 c 0,-1.2267 0.25986,-1.75 0.84375,-1.75 0.51277,0 0.6875,0.39198 0.6875,1.6875 l 0,1.125 0.4375,0 0.4375,0 0,-1.46875 c 0,-2.02069 -0.10811,-2.1815 -1.78125,-2.1875 z m -17.40625,0.0312 -1.09375,0.0937 -0.0312,2.03125 c -0.0187,2.12564 -0.016,2.33627 0.0937,2.65625 0.0371,0.10804 0.21974,0.18245 0.40625,0.15625 0.27158,-0.0382 0.3773,-0.14816 0.4375,-0.625 0.0737,-0.58375 0.0842,-0.609 0.625,-0.5625 0.63048,0.0542 1.34454,-0.26546 1.6875,-0.75 0.31707,-0.44792 0.29242,-1.80154 -0.0312,-2.34375 -0.37666,-0.63095 -0.82963,-0.77347 -2.09375,-0.65625 z m 8.09375,0 -0.90625,0.0937 -0.0625,1.4375 c -0.0259,0.78821 0.005,1.5658 0.0312,1.75 0.0374,0.2603 0.12616,0.34375 0.46875,0.34375 l 0.4375,0 0,-1.1875 c 0,-1.22062 0.23126,-1.73575 0.6875,-1.5625 0.20122,0.0764 0.6875,-0.27204 0.6875,-0.5 0,-0.33705 -0.4792,-0.4718 -1.34375,-0.375 z m 2.125,0 c -0.32234,0.0834 -0.34375,0.1476 -0.34375,1.75 0,0.91827 0.0385,1.72665 0.0937,1.78125 0.0552,0.0545 0.27572,0.0937 0.46875,0.0937 0.2917,0 0.3588,-0.0667 0.375,-0.46875 0.042,-1.03992 -0.0599,-3.02376 -0.15625,-3.125 -0.0559,-0.0588 -0.25279,-0.0791 -0.4375,-0.0312 z m -9.59375,0.65625 c 0.16694,0.006 0.33427,0.13713 0.53125,0.34375 0.24701,0.25952 0.3076,0.43794 0.25,0.875 -0.0409,0.3102 -0.14971,0.66166 -0.25,0.78125 -0.26746,0.31888 -1.00051,0.28325 -1.1875,-0.0625 -0.25955,-0.47992 -0.20567,-1.32903 0.125,-1.65625 0.19489,-0.19286 0.36431,-0.28711 0.53125,-0.28125 z M 233,869.78125 c 0.35658,0 0.65025,0.2438 0.65625,0.53125 0.003,0.1583 -1.3378,0.12839 -1.4375,-0.0312 -0.12746,-0.20408 0.34432,-0.5 0.78125,-0.5 z m 12.53125,0.0312 c 0.171,0.0906 0.3125,0.28633 0.3125,0.40625 0,0.15464 -0.17343,0.21875 -0.59375,0.21875 -0.73157,0 -0.896,-0.2137 -0.40625,-0.53125 0.28891,-0.1873 0.44521,-0.22206 0.6875,-0.0937 z m -21.5,0.0625 c 0.28789,-0.14314 0.42292,-0.15331 0.65625,0 0.16169,0.10624 0.31165,0.2797 0.34375,0.375 0.0394,0.11693 -0.19435,0.1875 -0.71875,0.1875 -0.84302,0 -0.94958,-0.23007 -0.28125,-0.5625 z m 0.46875,1.3125 0.9375,0 -0.375,0.34375 c -0.52973,0.55799 -1.5,0.46464 -1.5,-0.15625 0,-0.1379 0.27576,-0.1875 0.9375,-0.1875 z m 8.75,0 c 0.72766,0.006 0.98546,0.0431 0.78125,0.125 -0.16832,0.0675 -0.42058,0.24304 -0.53125,0.375 -0.37632,0.44871 -1.34375,0.22173 -1.34375,-0.3125 0,-0.14186 0.29435,-0.1945 1.09375,-0.1875 z m 12.59375,19.03125 0,3.8125 0,3.78125 6.6875,0 6.6875,0 0,-3.78125 0,-3.8125 -6.6875,0 -6.6875,0 z M 249.5,891.3125 c 0.10338,-0.26346 0.12974,-0.23162 0.46875,0.15625 0.20076,0.2297 0.375,0.4852 0.375,0.5625 0,0.21834 -0.21841,0.14452 -0.59375,-0.15625 -0.24516,-0.1964 -0.3296,-0.35954 -0.25,-0.5625 z m 1.65625,1.40625 c 0.0375,0.0551 -0.0934,0.17426 -0.375,0.34375 -0.94147,0.56657 -0.95767,1.75097 -0.0312,2.5 0.57941,0.46847 0.40071,0.67936 -0.21875,0.25 -1.05028,-0.72797 -1.00061,-2.40874 0.0937,-2.96875 0.29443,-0.15067 0.49379,-0.18008 0.53125,-0.125 z m -3.0625,0.5625 C 248.30581,893.15156 249,893.31544 249,893.5 c 0,0.0803 -0.2417,0.15625 -0.53125,0.15625 -0.51241,0 -0.69613,-0.1786 -0.375,-0.375 z m 2.875,0.375 c 0.0685,0.0322 0.11443,0.17025 0.0625,0.375 -0.0523,0.20634 -0.0251,0.4942 0.0625,0.65625 0.17595,0.32534 0.002,0.40484 -0.28125,0.125 -0.19708,-0.19502 -0.2053,-0.56926 -0.0625,-0.9375 0.0752,-0.19384 0.15021,-0.25095 0.21875,-0.21875 z m -1.8125,1.46875 0.34375,0 -0.4375,0.46875 c -0.48409,0.50001 -0.60113,0.52208 -0.71875,0.21875 -0.10905,-0.28122 0.37303,-0.6875 0.8125,-0.6875 z m 1.28125,1.34375 c 0.0384,0 0.0625,0.14877 0.0625,0.3125 0,0.16842 -0.11936,0.28125 -0.25,0.28125 -0.18429,0 -0.19101,-0.0436 -0.0625,-0.28125 0.0885,-0.16373 0.2116,-0.3125 0.25,-0.3125 z" />
  </g>
</svg>
